<?xml version="1.0"?><svg width="762.3548" height="113.92712" xmlns="http://www.w3.org/2000/svg">

 <metadata id="metadata2899">image/svg+xml</metadata>
 <g>
  <title>Layer 1</title>
  <path fill="none" fill-rule="evenodd" stroke="#000000" stroke-width="4" d="m4.152767,109.917908c18.851238,-11.48381 37.702477,-45.935028 75.404957,-45.935028c37.702477,0 37.702477,45.935028 75.404953,45.935028c37.702484,0 37.702484,-45.935028 75.404953,-45.935028c37.702469,0 37.702469,45.935028 75.404465,45.935028c37.702454,0 37.702454,-45.935028 75.404938,-45.935028c37.702484,0 37.702484,45.935028 75.404968,45.935028c37.702484,0 37.702484,-45.935028 75.404938,-45.935028c37.702515,0 37.702515,45.935028 75.40448,45.935028c37.702454,0 37.702454,-45.935028 75.404968,-45.935028c37.702454,0 56.553711,34.451218 75.404907,45.935028" id="path2446"/>
 </g>
</svg>