<?xml version="1.0" encoding="UTF-8" standalone="no"?>
<!-- Created with Inkscape (http://www.inkscape.org/) -->

<svg
   xmlns:dc="http://purl.org/dc/elements/1.1/"
   xmlns:cc="http://creativecommons.org/ns#"
   xmlns:rdf="http://www.w3.org/1999/02/22-rdf-syntax-ns#"
   xmlns:svg="http://www.w3.org/2000/svg"
   xmlns="http://www.w3.org/2000/svg"
   xmlns:sodipodi="http://sodipodi.sourceforge.net/DTD/sodipodi-0.dtd"
   xmlns:inkscape="http://www.inkscape.org/namespaces/inkscape"
   width="400"
   height="200"
   id="svg2"
   version="1.1"
   inkscape:version="0.48.2 r9819"
   sodipodi:docname="2x1logo.svg">
  <defs
     id="defs4" />
  <sodipodi:namedview
     id="base"
     pagecolor="#ffffff"
     bordercolor="#666666"
     borderopacity="1.0"
     inkscape:pageopacity="0.0"
     inkscape:pageshadow="2"
     inkscape:zoom="1.28"
     inkscape:cx="121.10178"
     inkscape:cy="155.66719"
     inkscape:document-units="px"
     inkscape:current-layer="layer1"
     showgrid="false"
     inkscape:window-width="1352"
     inkscape:window-height="849"
     inkscape:window-x="0"
     inkscape:window-y="0"
     inkscape:window-maximized="0"
     fit-margin-top="0"
     fit-margin-left="0"
     fit-margin-right="0"
     fit-margin-bottom="0"
     showborder="false" />
  <metadata
     id="metadata7">
    <rdf:RDF>
      <cc:Work
         rdf:about="">
        <dc:format>image/svg+xml</dc:format>
        <dc:type
           rdf:resource="http://purl.org/dc/dcmitype/StillImage" />
        <dc:title></dc:title>
      </cc:Work>
    </rdf:RDF>
  </metadata>
  <g
     inkscape:label="Layer 1"
     inkscape:groupmode="layer"
     id="layer1"
     transform="translate(88.928551,-860.00909)">
    <g
       id="g14524">
      <rect
         y="860.00909"
         x="-88.928551"
         height="200"
         width="400"
         id="rect14522"
         style="fill:#ffffff;fill-opacity:1;stroke:none" />
      <g
         style="fill:#423259;fill-opacity:1"
         transform="translate(-104.83125,7.1759424)"
         id="g14435">
        <g
           id="g14178"
           style="fill:#423259;fill-opacity:1"
           transform="matrix(0.08554694,0,0,0.08554694,30.904878,916.91382)">
          <path
             id="path13981"
             d="m 1280.2467,-224.86173 c 8.5128,-10.06594 16.4281,-20.75913 26.7032,-29.12252 -10.8725,22.90972 -25.1201,45.55061 -46.4467,60.0372 -10.9621,9.82699 -19.8034,21.77469 -31.542,30.76534 -9.5283,19.56436 -32.3782,27.06154 -41.4585,46.89473 -1.4337,-1.07529 -4.2713,-3.25575 -5.705,-4.33104 -20.3709,18.51894 -40.891,36.888528 -61.5606,55.049036 -3.6141,3.136272 -6.5115,6.959537 -8.7815,11.141232 -1.5532,-2.449279 -3.0168,-4.958296 -4.4804,-7.437444 -8.4829,7.61666 -16.906,15.442405 -23.3279,24.940828 1.9714,1.642809 3.9129,3.285619 5.8544,4.988166 -8.9011,5.884244 -16.2788,13.709989 -22.7305,22.1331188 14.2775,-8.6023458 26.0161,-20.6993948 38.3521,-31.7510188 24.7317,-22.90972 48.6869,-46.625909 73.5978,-69.356408 0.7169,1.04542 2.1208,3.13627 2.8077,4.18169 10.3647,-8.39326 20.7293,-16.78652 30.5563,-25.80704 -0.03,1.49347 -0.09,4.42065 -0.1195,5.91412 6.5414,-3.49471 13.5607,-7.01928 17.0255,-14.03855 1.6428,2.3298 3.2557,4.71934 4.8986,7.07901 7.079,-7.82575 15.6514,-14.03855 23.5967,-20.96822 8.5724,-9.37894 17.2644,-18.78776 27.7485,-26.10573 -6.1232,14.81515 -20.2514,23.95515 -27.5096,38.05343 -3.9726,7.13876 -9.3192,13.35156 -15.1138,19.05659 l 2.2999,-10.75293 c -6.5414,6.15306 -14.4866,11.52953 -18.6085,19.71371 l 1.5532,4.56999 c -17.4437,19.653973 -39.9651,34.947032 -54.1231,57.348974 22.4915,-11.649009 38.4118,-32.019842 56.8412,-48.806364 11.3204,-9.79712 17.8618,-23.8954 30.0484,-32.82631 19.9527,-15.95018 33.603,-38.11317 52.3011,-55.31786 -1.2545,13.8892 -12.0672,23.38762 -18.3995,34.94703 7.0492,-6.09333 12.6945,-13.56065 19.3553,-20.07214 -2.2999,10.36463 -7.1686,19.86305 -9.9763,30.07834 7.6166,-6.24268 13.7996,-13.97882 20.1617,-21.476 -3.2258,6.36215 -6.6011,12.66457 -9.6179,19.11632 11.8581,-8.69195 21.5656,-19.89292 33.4835,-28.555 -8.9907,11.91783 -19.7735,22.25259 -29.929,33.125 -9.9465,10.09581 -17.3541,22.28247 -26.1058,33.36396 -2.5687,17.26443 -18.1903,27.838146 -27.5693,41.428658 -11.3503,16.428091 -25.5083,30.765334 -35.634,48.029764 -11.649,12.993126 -16.7566,30.406902 -29.3017,42.832513 -8.0946,7.646529 -8.0946,20.221486 -16.697,27.360238 -17.2943,16.667045 -35.7833,32.13932 -52.4205,49.433619 -5.7349,17.981288 -22.3123,28.196578 -35.8132,39.965068 12.8736,27.53945 29.4809,53.61531 36.8586,83.42483 13.5607,43.22081 23.2682,87.69613 27.5992,132.82858 0.5078,23.08893 2.8973,46.02852 4.9583,68.99798 -0.7766,28.28619 -4.7492,56.69185 -13.3515,83.72353 -5.1973,18.10076 -8.453,36.70931 -12.6945,55.0789 -2.061,6.72059 2.8973,13.82947 -1.0454,20.28123 -8.9906,17.86181 -13.2619,38.56121 -27.0914,53.58544 0.448,3.67392 0.687,7.37771 0.7168,11.11137 -20.4604,42.02604 -48.1791,80.46777 -80.9755,113.71225 0.2688,1.28438 0.8363,3.88301 1.135,5.16739 -8.901,9.97633 -20.0721,17.71246 -28.5849,28.0771 -3.85308,6.81019 -14.39693,2.29993 -17.80203,9.25947 -7.10888,14.06842 -22.70063,20.07214 -35.93271,26.9122 -6.42189,2.27006 -6.21281,11.49966 -12.93339,13.20221 -8.00496,2.29993 -14.33724,7.46731 -20.10201,13.23208 -9.91659,6.03359 -22.28246,6.33228 -32.37827,12.15678 -16.45796,10.45424 -35.60416,15.08398 -53.85427,21.44613 -18.16051,3.91287 -36.1418,9.91659 -54.89969,10.33476 53.34649,-16.72678 108.57474,-33.48343 153.4085,-68.19151 -4.59987,1.34412 -9.14,2.86745 -13.65025,4.39078 -13.26195,-4.24143 -17.08522,13.11261 -28.94331,14.30738 -24.10449,7.34783 -45.07271,22.64089 -69.44602,29.12252 14.75541,-12.09705 33.81199,-17.47351 48.68688,-29.54069 9.73738,-8.42313 22.96946,-10.21529 33.36396,-17.47352 22.13312,-15.7411 44.80389,-31.39259 62.54622,-52.18159 -4.48038,1.88176 -8.63221,4.45052 -12.39574,7.55692 -1.28438,-1.1649 -2.53888,-2.3298 -3.76352,-3.4947 12.75417,-7.01928 22.46168,-18.13064 33.27435,-27.65893 23.8357,-21.8643 45.013,-46.56617 62.8748,-73.53811 -1.1052,-0.11948 -3.3155,-0.32856 -4.4207,-0.41817 -10.8724,14.33724 -20.8487,29.39135 -32.5873,43.07147 -12.51524,12.48535 -27.56935,22.04351 -41.01051,33.4237 -6.84006,6.78032 -14.12816,18.69815 -25.12005,16.81639 4.80895,-4.48039 9.82699,-8.69196 14.36711,-13.44117 -3.25575,0.89608 -6.30241,2.27006 -9.11012,4.12196 -37.18722,29.42122 -76.91333,56.84119 -121.11983,74.49392 12.93338,-10.12567 28.34592,-16.33848 42.14552,-25.12004 11.79835,-7.79588 26.04599,-13.23208 33.78213,-25.80704 -28.3758,13.47104 -55.01917,31.06403 -85.09751,40.74167 7.19849,-5.46608 15.17358,-9.67764 22.64089,-14.75542 -12.93339,0.80647 -23.4175,9.08026 -35.15611,13.59052 -15.3528,5.97385 -30.55625,12.66456 -46.62591,16.39822 11.11136,-8.57248 24.73174,-12.81391 37.12748,-19.08646 -1.76228,-0.44804 -5.34659,-1.37398 -7.13875,-1.82202 13.32169,-8.66209 25.38887,-19.14619 39.6365,-26.34469 18.04103,-9.34907 34.37952,-21.41625 50.718,-33.33409 9.94646,-7.55692 21.89417,-13.53077 28.0771,-24.97069 -10.51398,3.25575 -18.22024,11.23084 -26.37455,18.10077 -17.74234,13.70998 -39.12873,21.20717 -59.64891,29.60043 -9.64777,3.40509 -20.04227,3.61418 -30.07834,4.71934 10.7828,-7.85561 22.99933,-13.44116 34.31978,-20.49031 13.59051,-8.27378 25.4486,-18.99685 38.53134,-28.01736 10.57372,-7.79588 22.07338,-14.51646 31.15363,-24.13436 -38.0833,18.81763 -72.04464,45.69996 -112.00971,60.87354 9.05039,-7.3777 18.33973,-14.42685 28.4654,-20.25135 15.50215,-8.99065 29.30174,-20.49031 43.75846,-31.03416 4.12196,-2.74797 6.39202,-7.16862 8.453,-11.46979 -9.2296,5.40633 -17.14495,13.02299 -27.24076,16.93587 -8.66208,3.61418 -18.66828,4.39078 -26.1356,10.51397 -8.30365,6.30242 -16.03979,13.26195 -24.34344,19.50463 2.09085,-3.85314 4.2713,-7.64653 6.45176,-11.41006 -9.11012,4.83882 -18.22025,10.0062 -28.28619,12.66457 12.36587,-9.79712 27.18103,-15.86058 39.99494,-25.06031 18.39946,-13.02299 37.60539,-25.77717 52.30106,-43.01173 -6.78032,3.19601 -13.1126,7.16862 -19.74357,10.60359 10.36463,-10.3049 25.0603,-16.93587 32.85618,-29.27187 -5.67516,-0.98569 -10.06594,4.39078 -15.11385,6.12319 4.12196,-6.27254 11.0815,-14.06841 19.44489,-11.02175 3.82326,-1.22464 6.81019,-3.97261 9.70751,-6.63098 28.8537,-27.27063 54.12309,-58.42426 73.56798,-93.0726 15.26318,-27.21089 29.18226,-55.85551 34.76781,-86.82992 5.0479,-27.74854 11.14123,-55.61656 10.60359,-83.99235 -0.47791,-28.94331 0.11947,-58.15544 -5.01804,-86.74032 -3.82326,-24.9707 -12.57496,-48.65702 -20.75913,-72.40308 -5.19725,4.30117 -10.36463,8.63222 -15.50215,12.99313 3.10641,9.2296 6.78032,18.27998 9.05039,27.77841 -5.79464,-7.43745 -8.0647,-16.72679 -11.0815,-25.44861 -21.38638,18.27998 -42.80264,36.58984 -63.50203,55.67629 -8.78157,11.55941 -22.52142,16.84626 -34.61847,24.04475 11.11136,-14.90475 24.9707,-27.41997 38.02356,-40.53258 -16.48783,11.0815 -34.02108,20.75914 -48.95571,34.05096 -24.37331,21.14743 -49.22453,42.20525 -69.86419,67.14608 12.78404,-2.92718 22.96946,-11.49966 35.03664,-16.15926 -1.0753,8.5426 -7.25823,14.57619 -13.23208,20.13187 -97.97116,93.81934 -198.06304,185.36861 -298.54322,276.46984 6.69072,2.12071 13.35156,4.33104 20.04227,6.54136 -1.82202,-3.79339 -3.64404,-7.55692 -5.4362,-11.32044 7.94522,4.2713 15.77097,8.75169 23.68632,13.08273 10.69319,-3.25575 21.9539,0.14935 30.85494,6.42189 13.94894,9.67764 27.03168,21.05783 36.70932,35.12625 6.66084,9.25947 9.91659,20.84874 18.90724,28.40566 4.45052,13.05286 4.24143,28.28618 -1.28438,41.12996 -4.59987,12.27627 -14.69568,21.20718 -20.81887,32.61723 -9.43869,12.18666 -22.84998,21.74482 -37.93396,25.44861 -8.24391,2.47915 -17.05534,-1.22464 -25.17978,1.64281 -18.81763,9.13999 -41.1001,10.24515 -61.29171,5.91411 -39.24821,-13.14247 -70.37197,-41.51827 -104.57227,-63.62152 -5.7349,4.77909 -11.41006,9.64777 -16.06966,15.50215 -18.51894,24.16423 -42.02604,43.75846 -63.47217,65.20458 -33.99121,31.81076 -67.77334,64.1293 -105.55795,91.48953 -19.50462,16.36836 -43.22081,26.1953 -64.36825,40.1144 -22.521415,11.8581 -44.146757,25.3889 -66.638306,37.3067 14.337243,-11.6789 30.735464,-20.4007 45.371396,-31.6315 7.82575,-5.2271 9.25947,-15.2035 13.38143,-23.0292 -4.42065,1.1947 -8.51274,3.1362 -10.93215,7.1985 -5.734895,8.3634 -15.502141,12.1269 -24.313572,16.2787 2.120717,-2.6882 6.42189,-8.0946 8.572477,-10.7828 -14.994367,6.5414 -27.778408,16.906 -41.816959,25.1499 2.957057,-4.5998 6.063459,-9.1101 9.080254,-13.6502 -23.118804,14.845 -43.848068,33.0354 -66.488964,48.5674 -0.05974,-3.1064 -0.149346,-9.2894 -0.179215,-12.3958 14.3969811,-9.2594 31.332849,-21.476 32.527619,-40.0845 -7.258229,3.6142 -14.4865887,7.3478 -21.4162561,11.5893 -1.9415016,0.3285 -5.8842434,0.9558 -7.8257451,1.2844 7.4971833,-9.0803 15.4722746,-17.8021 22.3123342,-27.42 -6.9595366,3.7635 -13.68011918,7.8556 -20.5799173,11.7685 2.0908479,-2.748 6.27254374,-8.1842 8.3633917,-10.9023 -2.5388868,0.8961 -7.5569218,2.6882 -10.0659393,3.5843 5.1076428,-5.9141 10.1256778,-11.8581 14.5761969,-18.25012 -3.7635262,1.34412 -7.5270525,2.68823 -11.320448,4.00248 7.4971832,-11.79836 18.489069,-20.99809 24.88109,-33.54318 -6.093328,3.34536 -12.0074407,7.01928 -17.9812919,10.60359 1.9415017,-4.06222 3.8531341,-8.09457 5.7647664,-12.12692 -9.7971159,5.04791 -17.8319455,12.66457 -26.7031145,19.02672 8.184176,-14.15803 20.22148598,-25.80704 27.1810226,-40.74167 2.5388864,-5.49594 7.3179674,-12.54508 2.5986254,-18.25011 -5.7348972,2.65836 -10.12567788,7.40757 -14.9943666,11.35032 19.1163236,-30.22769 38.7702946,-60.24629 61.5904056,-87.81562 5.256989,-5.13751 3.972611,-12.15678 1.433725,-18.25011 C 40.642745,838.45392 27.022365,854.88201 9.6981961,866.76997 34.04164,826.80491 69.406839,795.59154 103.90583,764.64699 c 34.61847,-31.18351 69.68497,-61.91897 106.06573,-91.01163 7.25823,-5.88424 15.11384,-11.14123 21.23704,-18.25011 -28.88357,-43.19095 -48.3882,-91.84796 -63.8306,-141.25171 1.97137,0.95581 5.94398,2.92718 7.91535,3.883 -5.37646,-11.61914 -12.39574,-22.90972 -13.1126,-36.05219 -3.46484,-30.46664 -5.07778,-61.32158 -3.04667,-91.96744 4.83882,8.96078 3.91288,19.47475 4.77908,29.30174 0.47791,14.60606 2.86745,29.06278 4.33105,43.57924 1.37398,-1.88176 2.74797,-3.73365 4.09208,-5.61542 -3.37522,-28.49527 -1.28437,-57.25936 -1.13503,-85.87411 0.35843,-26.19534 1.64281,-53.10754 11.38019,-77.74967 3.70379,-10.18542 4.80895,-21.11757 8.54261,-31.27311 3.34535,-8.57248 11.23084,-15.50215 11.49966,-25.12005 -1.01555,-18.60854 10.03607,-34.55873 15.77097,-51.5842 6.27254,-13.26195 9.16986,-28.31606 17.95142,-40.29363 1.19477,18.33972 -16.84626,31.39259 -14.99437,49.28427 11.55941,-16.81639 15.7411,-37.48591 27.3005,-54.3023 1.10517,20.22148 -17.71246,36.6197 -11.11136,57.05028 7.07901,-8.00496 10.21529,-18.4592 16.36835,-27.06155 -1.52333,7.61666 -3.58431,15.08397 -5.25699,22.70063 6.86993,-7.19849 13.32169,-14.81515 20.40071,-21.86429 -10.54385,42.17539 -34.91716,81.09503 -35.45481,125.57035 12.12692,-24.16423 17.47351,-51.04656 28.61475,-75.65882 1.01555,2.35967 2.15058,4.6596 3.40509,6.92966 2.89732,-8.87117 6.36215,-17.74233 12.12692,-25.17978 -1.73242,18.8475 -8.75169,36.58984 -12.81391,54.95943 7.31797,-13.76973 12.30613,-28.58488 18.69815,-42.77277 0.50778,2.00124 1.52333,6.00372 2.03111,8.03483 12.51522,-23.95515 24.85122,-48.02977 40.14428,-70.37197 2.68824,-3.73366 6.03359,-6.86993 9.97633,-9.34908 -9.88672,26.82259 -33.21461,47.2233 -38.50147,76.01726 2.3298,14.06842 -6.18293,26.46416 -7.01927,40.23389 5.34659,-8.81143 9.02051,-18.7579 10.75293,-28.88357 -0.53765,-1.37399 -1.61294,-4.09209 -2.15059,-5.46608 8.93091,-4.86869 11.73862,-15.14371 16.5177,-23.35776 9.58803,-17.65273 17.56312,-36.08206 26.82259,-53.88413 11.32045,-16.81639 26.10573,-31.21338 36.23141,-48.925845 -6.06346,4.659605 -11.41005,10.155545 -16.63717,15.711225 -2.27007,-1.22464 -4.30118,-5.16738 0.11947,-6.39202 6.54137,-7.70627 12.84378,-15.591749 18.93711,-23.686317 1.25451,0.716862 3.76353,2.090848 5.01804,2.80771 17.47351,-15.621621 34.17042,-32.13932 52.54002,-46.715517 16.24887,-13.172341 36.76905,-18.757892 55.61655,-27.031676 29.83939,-12.7243033 60.75407,-23.1188043 89.42855,-38.411863 -1.82202,-0.746732 -5.40633,-2.270064 -7.19849,-3.016795 5.10765,-1.583071 10.24516,-3.196011 15.3528,-4.83882 1.04543,-2.747971 2.12072,-5.495943 3.19601,-8.214045 15.47228,-0.328562 29.57057,-7.945222 45.04284,-8.154307 35.60415,-1.344117 71.92517,-2.747972 106.63324,6.959537 23.14868,6.929667 47.67134,9.020515 69.83432,19.026716 21.89417,9.677639 43.93768,19.1461928 65.05524,30.4666408 15.05411,7.9750912 29.03292,17.7423382 43.78833,26.2550762 5.70503,-5.525813 11.70875,-10.752932 17.83195,-15.830706 -21.05783,-17.44364535 -50.68813,-24.0447509 -66.72792,-47.342771 12.39574,6.869929 23.77593,15.591752 37.60539,19.6539708 17.44365,8.84129982 34.79769,18.0708999 51.67382,27.9576232 3.07653,-4.151826 10.09581,-7.676398 6.5115,-13.590511 4.42065,2.688233 7.46731,-1.7324169 10.60358,-4.18169586 C 1005.36,-20.526146 1026.9256,-42.957957 1051.0301,-62.432712 c 19.9526,-12.485349 35.395,-30.556249 52.9582,-45.998658 9.6179,-8.12443 17.8319,-20.63965 31.8705,-20.55004 -7.8258,14.15802 -21.8046,23.23828 -32.6173,34.887286 -38.5612,36.082062 -74.6731,74.583533 -110.90452,112.965527 2.12072,0.866208 6.39202,2.568756 8.51272,3.434964 19.0865,-18.1007691 35.873,-38.830033 57.4386,-54.152961 14.397,-10.752932 26.1057,-24.612267 40.3235,-35.604153 1.0753,1.164901 3.2259,3.524572 4.331,4.689473 6.9596,-6.03359 14.9645,-10.663324 23.3279,-14.486589 -2.509,-2.210325 -4.9284,-4.450519 -7.2881,-6.780321 -4.3609,3.345356 -8.7517,6.630974 -13.2918,9.737377 4.8687,-7.258229 10.7529,-13.769727 17.4735,-19.325409 -1.0454,5.406336 2.9869,9.25947 5.257,13.530773 6.1829,-6.093328 12.6048,-12.276264 16.4878,-20.161747 -4.1518,-0.7766 -8.3036,-1.40386 -12.4256,-1.91163 6.3323,-5.67516 14.3671,-19.11633 23.8058,-11.11137 3.6142,-4.83882 7.1686,-9.73737 10.6335,-14.69567 -1.8519,-0.11948 -5.5557,-0.32856 -7.4076,-0.44804 6.1531,-8.69195 15.6814,-13.56064 23.6863,-20.19162 8.7218,-10.3945 18.9969,-19.3254 30.1381,-27.09141 3.3155,-2.86745 7.6167,-3.82327 11.9178,-4.24144 12.0971,-13.32168 23.6864,-27.50958 38.7703,-37.66513 -1.9713,6.63098 -4.6894,12.96326 -7.4972,19.26567 10.3946,-6.36215 15.9801,-17.53325 23.7162,-26.5239 m -94.7751,145.761973 c 9.7075,-5.436205 19.8033,-12.336003 23.537,-23.417493 -9.7673,5.525809 -18.28,13.411292 -23.537,23.417493 m 4.57,-17.921554 c -19.415,15.173582 -36.6795,32.886051 -54.8997,49.433619 -18.1605,17.6826 -37.3963,34.319775 -54.3023,53.2568834 l 8.9309,-1.1947702 c -12.0373,12.0373098 -24.4629,23.6863198 -36.2015,36.0223228 1.3441,1.851894 4.0024,5.525812 5.3466,7.377706 19.3552,-16.786522 38.83,-33.931475 54.7204,-54.152961 12.1867,-19.444886 36.1418,-27.419977 47.2532,-47.79081 l -5.2869,-3.434964 c 10.4543,-14.098289 24.1045,-25.388868 34.4393,-39.517026 m -125.4509,68.66942 c 10.3945,-4.749212 18.6683,-13.411296 23.6565,-23.656451 -9.8569,5.675159 -17.6826,14.128158 -23.6565,23.656451 m -386.71725,4.241434 c 12.00744,3.883003 24.82135,2.688233 37.15736,4.629735 15.02423,0.567516 26.01612,13.8294654 41.30918,13.202211 20.81887,0.059738 40.14428,8.1244377 60.00733,13.2320804 20.37084,5.1972506 36.5301,19.2358006 54.72048,29.0030476 12.87365,6.84006 24.61227,15.621621 37.60539,22.162988 0.7766,-1.164901 2.27007,-3.554442 3.04667,-4.749212 C 891.31916,35.209886 869.54447,16.601339 843.25952,7.9989934 825.51719,9.6119332 811.32929,-2.4552462 795.25963,-7.6524968 757.5945,-19.988499 717.83852,-31.458294 677.87345,-24.110457 M 484.79858,39.779882 c -13.38142,6.780321 -25.56808,15.980052 -35.12624,27.599192 -15.56189,19.176063 -34.08082,35.693766 -49.5531,54.929566 -8.69195,10.7828 -18.42933,20.69939 -27.06154,31.54193 -0.17922,3.13627 1.40385,6.78032 -0.77661,9.55816 -7.97509,12.66457 -17.89168,24.52266 -21.92403,39.2482 11.64901,-11.35031 18.30985,-26.67324 27.50959,-39.90532 16.48782,-32.2588 42.44421,-58.21518 69.05772,-82.200194 0.7766,1.61294 2.38954,4.868689 3.16614,6.511498 3.07653,-4.03235 6.15306,-8.03483 9.46855,-11.887964 -2.86745,13.919073 -13.68012,23.507105 -21.41626,34.67821 9.67764,-3.52458 14.69568,-14.576201 26.16547,-14.755416 -6.75045,10.932146 -17.80207,18.966976 -21.38638,31.780886 -10.63346,1.4636 -17.17483,9.43869 -19.11633,19.6241 -1.76228,0.32857 -5.28686,1.04543 -7.04914,1.40386 -0.35843,1.85189 -1.04543,5.52581 -1.37399,7.3777 -3.04666,2.09085 -6.18293,4.27131 -7.70627,7.79588 -10.72306,19.41502 -20.69939,39.2482 -32.13932,58.27492 -1.1649,-2.41941 -3.46483,-7.2881 -4.62973,-9.73738 -5.88424,8.09457 -8.66209,17.62286 -10.24516,27.39011 -0.20908,4.06222 -3.40509,5.88424 -6.95953,6.69071 -0.687,1.52333 -2.06098,4.57 -2.74797,6.09333 -3.34536,3.58431 -7.13876,7.13875 -7.70627,12.336 -4.89856,24.01489 -10.27503,48.11938 -10.84254,72.73164 -1.67268,-3.79339 -3.28562,-7.58679 -4.89856,-11.35032 -1.01555,4.71935 -1.9415,9.49843 -2.89732,14.27751 1.91163,0.71686 5.7349,2.15059 7.64653,2.86745 1.58307,-3.19601 3.16614,-6.36215 4.74921,-9.5283 1.01556,4.27131 2.74797,8.24392 5.13752,11.88797 0.0896,27.89788 1.91163,55.79577 5.49594,83.4547 0.92595,10.63346 9.2296,20.93835 4.74921,31.63154 -6.54137,-20.46044 -10.0062,-41.72735 -16.42809,-62.18779 -1.28438,5.97385 -2.09085,12.15679 -1.1649,18.27999 4.74921,37.93395 15.23332,76.07699 36.88853,108.06696 9.46855,-6.63097 18.25011,-14.60606 29.15239,-18.90723 23.68632,-9.16987 40.02481,-29.5407 58.30479,-46.17787 6.86993,-6.75046 17.2943,-7.70627 24.13436,-14.51646 34.52886,-30.25756 69.41615,-60.03721 103.8554,-90.38437 20.34097,-17.47352 37.9937,-37.93396 58.96191,-54.66074 14.9645,-8.99065 28.70436,-19.80332 41.07023,-32.13932 -1.25451,-0.89608 -3.82326,-2.65836 -5.10764,-3.55444 l 0.74673,-1.76229 1.28438,-2.03111 c 6.6011,-5.85437 3.28562,4.15183 8.42313,3.88301 10.69319,-10.75294 22.01364,-20.93835 33.87173,-30.37704 10.78281,-6.9894 21.8643,-13.5009 31.75102,-21.74482 28.55501,-23.26815 58.75283,-44.50519 85.99359,-69.38628 9.16986,-8.60234 19.6241,-16.69691 24.52266,-28.70435 -6.66084,3.19601 -12.7243,7.43744 -18.39946,12.12692 0.41817,-1.58307 1.28438,-4.68948 1.70255,-6.27255 -8.93091,4.9583 -26.97194,4.68948 -25.83691,18.90724 -4.12196,0.95582 -8.24391,1.88176 -12.36587,2.86745 0.80647,1.28438 2.38954,3.82326 3.19601,5.07777 -12.18666,10.54385 -27.18102,16.66705 -40.8014,25.00057 1.49346,1.28438 2.98692,2.56876 4.54012,3.883 1.88177,-1.43372 5.64529,-4.30117 7.52705,-5.73489 -4.89855,7.49718 -12.15678,13.17234 -20.22148,16.93587 1.91163,-1.64281 5.70503,-4.86869 7.61666,-6.5115 -1.40386,-1.34412 -2.77784,-2.68824 -4.15183,-4.00248 -1.9415,1.10516 -5.76476,3.28562 -7.6764,4.36091 18.30986,-22.22273 42.62343,-38.44173 64.06956,-57.43858 11.5594,-8.60235 19.20593,-21.92403 32.82631,-27.718671 C 850.18919,87.421345 840.03364,78.968346 828.38463,72.78541 800.75557,57.552089 769.27338,51.936669 738.65739,45.962818 c -30.67573,-6.063459 -61.85923,-1.045424 -92.41548,2.867448 -41.36892,4.480389 -78.04837,25.627822 -114.57847,43.907807 -8.66208,4.360911 -18.8475,6.00372 -26.01612,12.993127 -5.4362,3.73366 -9.85685,10.84254 -17.23456,10.03607 l 4.48039,-6.42189 c -2.06098,-0.11948 -6.15307,-0.35843 -8.21405,-0.47791 7.94523,-6.36215 16.54757,-11.887963 25.00057,-17.592991 1.13503,0.896078 3.46484,2.658364 4.62974,3.554442 32.7367,-17.503384 64.72667,-36.380754 97.94129,-52.988061 15.80083,-8.273783 35.63402,-5.794635 50.38943,-15.681359 -20.93835,-0.716862 -41.21957,5.376466 -61.1125,11.051625 -9.76724,5.495943 -20.84874,7.676399 -32.01984,6.840059 2.41941,-6.541367 5.46608,-12.784041 8.66209,-18.966977 -10.87241,4.599865 -21.92404,8.781561 -33.4237,11.499663 -12.09705,2.270064 -19.77345,13.381427 -31.63154,16.368353 8.03483,-9.468554 20.28122,-13.172342 30.04847,-20.340964 5.37646,-3.673918 10.03607,-8.871169 16.6073,-10.364631 13.50091,-3.64405 26.76286,-8.303654 38.91965,-15.3229288 -8.72183,-0.5973851 -16.96574,2.2103249 -24.94083,5.3465968 1.64281,-2.060979 4.95829,-6.1231975 6.6011,-8.1543069 -4.48039,1.4337243 -9.05038,2.568756 -13.62038,3.7037878 C 573.89857,1.0394567 583.397,-2.3955077 591.07339,-8.4888359 552.15375,-1.6487763 519.1781,21.76872 484.79858,39.779882 M 1031.167,7.5509546 c -1.1051,5.3764664 -3.1064,10.4841084 -5.1674,15.5917514 9.4985,-9.528292 18.7878,-19.385147 26.5538,-30.3770332 -7.6465,4.1219574 -14.8152,9.1101231 -21.3864,14.7852818 M 501.43576,22.306367 C 516.5496,15.257223 532.44005,8.7158555 545.37343,-1.9773381 529.24403,2.4433118 512.99516,9.8807565 501.43576,22.306367 M 926.47527,37.83838 c 2.00124,-0.477908 6.00372,-1.403855 8.00496,-1.851894 5.22712,-4.241434 16.99561,-8.81143 10.66333,-17.055345 -6.5115,6.003721 -12.96326,12.097049 -18.66829,18.907239 m 18.51894,-1.672678 c 4.12196,0.925947 5.79463,-0.716862 5.01803,-4.868689 -4.09208,-0.866208 -5.76476,0.746731 -5.01803,4.868689 m -4.9583,3.883003 c 1.67268,1.702548 1.67268,1.702548 0,0 m -27.0018,18.011161 c -2.65837,3.853134 3.883,8.572477 6.92966,5.167382 2.59863,-3.912873 -3.94274,-8.662085 -6.92966,-5.167382 M 331.15113,217.89026 c 11.58927,-12.36588 21.23704,-27.74854 25.56808,-44.26624 -9.82698,13.8892 -18.48907,28.76409 -25.56808,44.26624 m 56.75159,-35.24573 c -1.52334,1.5532 -1.97138,8.18418 1.82202,5.43621 2.80771,-3.37523 6.84006,-8.18418 5.55568,-12.78404 -3.94274,-0.59739 -5.76476,4.59986 -7.3777,7.34783 m -140.23616,10.18542 c -3.22588,9.55816 -5.85438,19.29554 -7.61666,29.242 3.31549,-6.57124 7.13875,-12.87365 10.63345,-19.32541 -0.71686,-3.40509 -1.97137,-6.63097 -3.01679,-9.91659 m 5.01803,105.10991 c 5.82451,-4.77908 6.42189,-12.69443 7.52706,-19.59423 -3.88301,5.91411 -6.15307,12.66456 -7.52706,19.59423 m -83.24561,165.08738 c 1.25451,15.29306 4.09209,30.43677 8.09457,45.25192 4.33104,20.60979 15.89044,38.50147 22.99932,58.15544 -0.44804,-16.906 -7.70627,-32.55749 -11.41005,-48.83623 -4.12196,-17.92155 -13.53078,-34.64834 -14.36712,-53.22701 -1.34411,-0.32857 -4.00248,-1.01556 -5.31672,-1.34412 m 176.28835,23.74606 c 2.00124,8.69195 3.883,18.39946 11.20097,24.43305 -1.9415,-8.8413 -5.55568,-17.32417 -11.20097,-24.43305 m -27.03168,36.02232 c 1.1649,12.60483 4.6596,24.9707 9.88672,36.50023 4.27131,-0.86621 6.84006,-4.86869 10.09581,-7.43744 -9.76725,-7.40758 -15.29306,-18.0709 -19.98253,-29.06279 m 616.14301,159.92 c 7.79588,-7.04915 14.33725,-15.47228 19.38515,-24.70188 -8.0647,6.81019 -14.39698,15.44241 -19.38515,24.70188 m -67.14609,29.39135 c 11.02176,-8.0647 20.99809,-18.13064 27.12129,-30.49652 -11.79836,7.34784 -19.68384,19.11633 -27.12129,30.49652 m 44.26624,-8.42314 c 7.82575,-4.54012 14.87489,-10.72306 18.99685,-18.90723 -7.40758,5.10764 -14.00868,11.38018 -18.99685,18.90723 m -6.86993,2.80771 c -3.31548,2.18046 -9.82698,5.25699 -8.453,10.00621 3.88301,1.19477 6.86993,-3.04667 9.40882,-5.31673 2.53889,-1.28438 3.31549,-7.40758 -0.95582,-4.68948 z"
             inkscape:connector-curvature="0"
             style="fill:#423259;fill-opacity:1" />
          <path
             id="path13983"
             d="m 1306.3525,-216.55807 c 9.9464,0.7766 -5.0181,8.63221 0,0 z"
             inkscape:connector-curvature="0"
             style="fill:#423259;fill-opacity:1" />
          <path
             id="path13985"
             d="m 1173.3745,-181.99934 c 4.4804,-10.27503 12.9932,-17.9813 21.4462,-24.9707 -1.7325,7.61666 -7.9154,12.63469 -12.0672,18.87737 -5.944,8.39326 -9.4984,18.19037 -15.532,26.49403 -6.392,7.2881 -14.5762,12.90352 -23.3578,16.93587 9.5283,-12.69444 22.6409,-22.73051 29.5108,-37.33657 z"
             inkscape:connector-curvature="0"
             style="fill:#423259;fill-opacity:1" />
          <path
             id="path13987"
             d="m 1297.3917,-185.04601 c 1.7025,-3.01679 4.5401,-7.43744 8.4829,-7.04914 0.9259,3.94274 -2.6285,7.70627 -5.0778,10.45424 -2.6285,0.53764 -3.7635,-0.59739 -3.4051,-3.4051 z"
             inkscape:connector-curvature="0"
             style="fill:#423259;fill-opacity:1" />
          <path
             id="path13989"
             d="m 1290.7308,-177.54882 c 2.5688,-0.59739 3.7337,0.53764 3.4948,3.40509 -1.6727,3.0168 -4.5103,7.55692 -8.3933,7.16862 -0.7467,-3.97261 2.4493,-7.73614 4.8985,-10.57371 z"
             inkscape:connector-curvature="0"
             style="fill:#423259;fill-opacity:1" />
          <path
             id="path13991"
             d="m 1234.9948,-146.45493 c 2.2402,-3.1064 5.7648,-7.31797 10.0062,-6.78032 0.8065,4.92843 -5.4362,9.82698 -9.7075,11.38019 -0.06,-1.1649 -0.2091,-3.46484 -0.2987,-4.59987 z"
             inkscape:connector-curvature="0"
             style="fill:#423259;fill-opacity:1" />
          <path
             id="path13993"
             d="m 1087.3212,-118.04927 c 5.496,-8.99064 13.7399,-15.77096 22.7006,-21.11756 -5.0479,9.28934 -12.9632,16.906 -22.7006,21.11756 z"
             inkscape:connector-curvature="0"
             style="fill:#423259;fill-opacity:1" />
          <path
             id="path13995"
             d="m 668.25555,-118.97521 c 6.84006,-7.2881 18.13064,-7.43745 27.03168,-4.48039 -8.78156,2.68823 -17.89169,3.94274 -27.03168,4.48039 z"
             inkscape:connector-curvature="0"
             style="fill:#423259;fill-opacity:1" />
          <path
             id="path13997"
             d="m 642.00048,-97.558957 c 14.78528,-12.097053 33.99121,-15.472273 52.21146,-18.937113 11.05162,-0.95581 21.98377,2.32981 32.94579,3.55445 -1.34412,2.80771 -2.6285,5.61542 -3.91288,8.42313 1.8519,0.71686 5.58555,2.15058 7.43745,2.86744 -20.43057,0.35844 -40.80141,2.59863 -61.20211,2.688238 -1.5532,-1.224638 -4.59986,-3.733658 -6.15306,-4.988168 -0.92595,1.31425 -2.80771,3.91287 -3.76353,5.197252 -5.85438,0.477909 -11.70875,0.925947 -17.56312,1.194771 z"
             inkscape:connector-curvature="0"
             style="fill:#423259;fill-opacity:1" />
          <path
             id="path13999"
             d="m 606.57554,-95.259025 c 6.5115,-0.537646 13.02299,-1.075293 19.56436,-1.433724 -2.18045,9.856855 -15.08397,5.943982 -22.37207,8.333523 0.68699,-1.732417 2.12072,-5.167382 2.80771,-6.899799 z"
             inkscape:connector-curvature="0"
             style="fill:#423259;fill-opacity:1" />
          <path
             id="path14001"
             d="m 556.0965,-77.486817 c 12.336,-8.542607 27.44984,-10.752932 41.99617,-12.45548 -13.68012,5.107643 -27.71867,9.259469 -41.99617,12.45548 z"
             inkscape:connector-curvature="0"
             style="fill:#423259;fill-opacity:1" />
          <path
             id="path14003"
             d="m 642.59786,-83.042499 c 22.52142,-3.22588 46.148,-9.767247 68.69929,-3.972611 -11.41006,6.362152 -24.94083,7.108883 -37.66513,5.61542 -1.40386,-1.075293 -4.24144,-3.225879 -5.64529,-4.301173 -3.58431,2.150587 -7.10888,4.42065 -9.94646,7.497184 -5.19725,-1.493463 -10.33477,-3.136272 -15.44241,-4.83882 z"
             inkscape:connector-curvature="0"
             style="fill:#423259;fill-opacity:1" />
          <path
             id="path14005"
             d="m 586.20471,-56.458861 c 24.22396,-8.930908 49.46348,-17.383907 75.65882,-16.45796 -25.09017,6.063459 -50.29983,11.768487 -75.65882,16.45796 z"
             inkscape:connector-curvature="0"
             style="fill:#423259;fill-opacity:1" />
          <path
             id="path14007"
             d="m 1103.4207,-53.621282 c 1.1351,1.194771 2.2701,2.41941 3.435,3.673919 -5.0479,3.58431 -9.3789,8.064699 -12.9334,13.112603 -1.2246,-1.19477 -2.4493,-2.38954 -3.6142,-3.554441 5.8544,-2.747972 10.3049,-7.437445 13.1126,-13.232081 z"
             inkscape:connector-curvature="0"
             style="fill:#423259;fill-opacity:1" />
          <path
             id="path14009"
             d="m 431.93,-18.943076 c 9.05038,-5.705027 17.80208,-12.664564 28.76409,-14.158027 -24.10449,18.0709 -52.30106,31.3029804 -72.34334,54.391915 -16.63717,18.459201 -34.14056,36.111931 -51.1959,54.2127 0.23895,-2.240194 0.68699,-6.660844 0.92595,-8.871169 -5.82451,6.511498 -11.49967,13.291819 -18.33973,18.817631 6.81019,-12.097048 17.50339,-21.26691 26.58364,-31.571803 C 359.07888,39.779882 373.1473,26.936102 386.9469,13.853368 399.94003,0.41220237 416.39799,-8.8173977 431.93,-18.943076 z"
             inkscape:connector-curvature="0"
             style="fill:#423259;fill-opacity:1" />
          <path
             id="path14011"
             d="m 947.56297,-10.908246 c 7.22836,2.6882334 14.09828,6.6608444 18.99684,12.7541727 -7.3777,-2.50901755 -13.82946,-6.9894059 -18.99684,-12.7541727 z"
             inkscape:connector-curvature="0"
             style="fill:#423259;fill-opacity:1" />
          <path
             id="path14013"
             d="m 330.46414,35.239755 c 4.54012,-5.794636 9.08025,-11.589271 14.15802,-16.935868 -6.15306,13.202211 -10.21528,28.823832 -23.35775,36.978139 -2.06098,-3.733657 -4.45052,-7.25823 -7.13876,-10.543848 4.57,-6.362151 9.34908,-12.545087 14.48659,-18.4592 0.47791,2.240194 1.40386,6.720583 1.8519,8.960777 z"
             inkscape:connector-curvature="0"
             style="fill:#423259;fill-opacity:1" />
          <path
             id="path14015"
             d="m 423.0887,20.18565 c 5.31673,1.672678 -1.97137,10.812671 -5.94398,7.825745 -1.67268,-3.61418 2.83758,-7.019275 5.94398,-7.825745 z"
             inkscape:connector-curvature="0"
             style="fill:#423259;fill-opacity:1" />
          <path
             id="path14017"
             d="m 409.94623,31.535967 c -3.61418,5.973851 -7.19849,12.515218 -13.97882,15.352798 3.76353,-5.884244 8.72183,-10.812671 13.97882,-15.352798 z"
             inkscape:connector-curvature="0"
             style="fill:#423259;fill-opacity:1" />
          <path
             id="path14019"
             d="m 1065.0089,34.552762 c 1.4934,1.702548 1.4934,1.702548 0,0 z"
             inkscape:connector-curvature="0"
             style="fill:#423259;fill-opacity:1" />
          <path
             id="path14021"
             d="m 526.79476,62.599993 c 6.15306,-1.672678 12.27626,-3.58431 18.4592,-5.19725 -5.97386,4.450519 -12.27627,8.42313 -18.54881,12.42561 0.0299,-1.822024 0.0597,-5.436204 0.0896,-7.22836 z"
             inkscape:connector-curvature="0"
             style="fill:#423259;fill-opacity:1" />
          <path
             id="path14023"
             d="m 346.68314,97.098984 c 4.83882,-11.111363 13.65025,-19.892924 22.61103,-27.778408 -5.64529,10.603586 -13.97881,19.534493 -22.61103,27.778408 z"
             inkscape:connector-curvature="0"
             style="fill:#423259;fill-opacity:1" />
          <path
             id="path14025"
             d="m 291.42502,128.67079 c 6.81019,-9.25947 11.91783,-19.95267 20.72926,-27.56933 -4.77908,9.79712 -11.49966,18.48907 -17.2943,27.6888 -0.86621,-0.0299 -2.56875,-0.0896 -3.43496,-0.11947 z"
             inkscape:connector-curvature="0"
             style="fill:#423259;fill-opacity:1" />
          <path
             id="path14027"
             d="m 481.48309,109.70381 c 1.8519,2.00124 3.67392,4.03235 5.49595,6.09333 -8.09457,11.29058 -20.4007,18.36959 -29.6303,28.58488 -11.52954,11.52953 -21.11757,24.97069 -33.18475,35.93271 -1.31424,0.20909 -4.00248,0.59739 -5.31673,0.80647 -3.85313,7.61666 -8.21404,14.9645 -12.96325,22.04351 -11.43993,17.32417 -13.94894,38.53134 -23.56685,56.72172 -9.19973,15.86057 -8.36339,35.90284 -20.13187,50.53878 -0.0299,-5.88424 2.21032,-11.29058 4.21156,-16.66704 5.43621,-14.33725 4.00248,-30.52638 11.23084,-44.32598 6.63098,-12.15679 9.37895,-25.92651 15.77097,-38.17291 22.67076,-38.94951 51.64394,-74.67314 88.08443,-101.55547 z"
             inkscape:connector-curvature="0"
             style="fill:#423259;fill-opacity:1" />
          <path
             id="path14029"
             d="m 355.64392,118.60485 c 0.56751,0.95581 0.56751,0.95581 0,0 z"
             inkscape:connector-curvature="0"
             style="fill:#423259;fill-opacity:1" />
          <path
             id="path14031"
             d="m 339.15609,140.20032 c -1.97137,-4.15183 2.38954,-11.38019 7.16862,-10.3945 1.31425,3.91287 -2.77784,10.93215 -7.16862,10.3945 z"
             inkscape:connector-curvature="0"
             style="fill:#423259;fill-opacity:1" />
          <path
             id="path14033"
             d="m 759.65548,165.26063 c 1.88176,0.98568 5.64529,2.98692 7.52705,3.97261 -4.39078,5.49594 -9.2296,11.11136 -16.72679,11.88796 2.59863,-5.55568 5.7349,-10.81267 9.19974,-15.86057 z"
             inkscape:connector-curvature="0"
             style="fill:#423259;fill-opacity:1" />
          <path
             id="path14035"
             d="m 298.26508,186.82623 c 4.59986,2.50902 -2.06098,13.94894 -6.69072,13.85933 -0.83633,-5.07777 2.68824,-10.90227 6.69072,-13.85933 z"
             inkscape:connector-curvature="0"
             style="fill:#423259;fill-opacity:1" />
          <path
             id="path14037"
             d="m 688.50691,234.61704 c 8.30365,-8.15431 19.08645,-13.32169 30.4069,-15.77097 -9.67764,12.09705 -21.05782,22.67077 -32.58736,32.94579 -4.06222,-5.8245 -3.76352,-12.75417 2.18046,-17.17482 z"
             inkscape:connector-curvature="0"
             style="fill:#423259;fill-opacity:1" />
          <path
             id="path14039"
             d="m 964.1404,295.61006 c 4.86869,11.88796 5.91411,24.91096 9.94646,37.09762 1.58308,0.62725 4.77909,1.85189 6.36216,2.47914 -1.01556,4.51026 -3.43497,8.453 -5.46608,12.54509 6.15307,26.43429 8.57248,53.61532 5.28686,80.61712 0.92595,22.07338 -5.76477,43.13121 -8.69195,64.75655 -1.49347,-2.09085 -2.92719,-4.1817 -4.33105,-6.27254 9.58804,-42.56369 11.88797,-86.91954 4.98817,-130.08061 -2.27006,-20.43057 -6.92967,-40.59232 -8.09457,-61.14237 z"
             inkscape:connector-curvature="0"
             style="fill:#423259;fill-opacity:1" />
          <path
             id="path14041"
             d="m 965.81308,491.67186 c 1.43372,2.09084 2.86745,4.24143 4.2713,6.39202 -6.33228,31.06402 -20.07214,59.88785 -34.91716,87.63639 -11.43992,18.48907 -24.64213,35.84311 -36.29114,54.24257 -1.79216,-0.26882 -5.37647,-0.80647 -7.13875,-1.04542 -2.29994,2.44928 -4.59987,4.92843 -6.95954,7.34784 4.83882,-8.81143 11.23084,-16.57744 17.65273,-24.22397 15.29306,-18.4592 27.18102,-39.45729 38.05343,-60.75407 10.87241,-22.16299 22.40194,-44.71427 25.32913,-69.59536 z"
             inkscape:connector-curvature="0"
             style="fill:#423259;fill-opacity:1" />
          <path
             id="path14043"
             d="m 863.09271,671.57438 c 6.24267,-10.03607 16.00992,-17.23456 25.95638,-23.26815 -7.01927,9.34908 -16.219,16.87613 -25.95638,23.26815 z"
             inkscape:connector-curvature="0"
             style="fill:#423259;fill-opacity:1" />
          <path
             id="path14045"
             d="m 816.94471,714.25755 c -0.29869,-4.71934 6.78032,-9.16986 11.1711,-8.24391 0.17922,4.74921 -6.75045,8.96077 -11.1711,8.24391 z"
             inkscape:connector-curvature="0"
             style="fill:#423259;fill-opacity:1" />
          <path
             id="path14047"
             d="m 793.46747,736.21145 c 7.64653,-8.30365 17.44365,-14.39698 27.77841,-18.78776 -7.43744,8.54261 -17.65273,14.06842 -27.77841,18.78776 z"
             inkscape:connector-curvature="0"
             style="fill:#423259;fill-opacity:1" />
          <path
             id="path14049"
             d="m 937.2282,792.45526 c 3.67392,-0.50777 5.10765,1.04543 4.24144,4.65961 -1.1649,0 -3.52458,0.0299 -4.68948,0.0597 0.11948,-1.19477 0.32857,-3.55445 0.44804,-4.71935 z"
             inkscape:connector-curvature="0"
             style="fill:#423259;fill-opacity:1" />
          <path
             id="path14051"
             d="m 740.86771,817.57531 c 0.11948,0.89608 0.32857,2.65836 0.44804,3.55444 -6.24267,2.15059 -12.45548,4.33104 -18.81763,5.91411 5.22712,-4.6596 11.9477,-6.95953 18.36959,-9.46855 z"
             inkscape:connector-curvature="0"
             style="fill:#423259;fill-opacity:1" />
          <path
             id="path14053"
             d="m -45.948228,1093.5374 c 0.149346,-4.57 6.660844,-9.1102 11.081494,-8.2738 0.238954,4.7791 -6.571236,9.5283 -11.081494,8.2738 z"
             inkscape:connector-curvature="0"
             style="fill:#423259;fill-opacity:1" />
        </g>
        <g
           id="g14168"
           style="fill:#423259;fill-opacity:1"
           transform="matrix(0.21143885,0,0,0.21143885,141.29283,676.28945)">
          <path
             id="path14055"
             d="m 377.26926,1159.9965 c 9.94646,-0.03 19.92279,-0.03 29.86926,0 0.26882,83.7235 -0.56752,167.447 0.41817,251.1407 -1.55321,15.0541 14.75541,19.7435 26.58363,20.8487 -0.29869,7.9452 -0.65712,15.8904 -0.95581,23.8655 -14.5762,-0.7467 -31.12377,-0.3285 -42.71304,-10.6633 -11.85809,-10.9321 -13.1126,-28.1368 -13.20221,-43.2208 0,-80.6769 0,-161.3238 0,-241.9708 z"
             inkscape:connector-curvature="0"
             style="fill:#423259;fill-opacity:1" />
          <path
             id="path14057"
             d="m 288.85626,1179.6803 c 11.29058,-5.6752 26.85246,3.196 25.7473,16.2787 0.50778,13.2321 -15.62162,22.6111 -26.82259,15.4424 -12.54509,-6.2426 -12.06718,-26.5239 1.07529,-31.7211 z"
             inkscape:connector-curvature="0"
             style="fill:#423259;fill-opacity:1" />
          <path
             id="path14059"
             d="m 508.39529,1264.1506 c 28.61475,-22.6111 74.88223,-18.3398 98.18025,9.9464 18.39946,22.0734 23.77593,52.0323 23.05906,80.0496 -44.35584,0.03 -88.71169,-0.06 -133.06753,0.03 0.80647,22.0435 5.49594,45.8792 22.07338,61.7397 13.26195,13.2321 33.87174,15.1139 51.37512,11.1413 17.41378,-4.3908 30.46664,-17.6528 41.78709,-30.8251 5.76476,5.5258 11.61914,10.962 17.59299,16.3086 -14.33724,18.6384 -33.00553,35.7535 -56.45289,41.3391 -25.14992,4.8388 -53.31663,0.7766 -73.14981,-16.3983 -23.86554,-20.2513 -33.75226,-52.8387 -32.82631,-83.3352 0.92594,-33.7224 14.15802,-68.9084 41.42865,-89.996 m 21.23705,18.7578 c -15.44241,9.9465 -23.56685,27.3603 -28.82384,44.326 32.67697,0.03 65.35394,0.09 98.06077,-0.03 -3.97261,-15.1736 -9.28934,-31.2134 -21.92403,-41.3988 -13.05287,-10.9322 -33.12501,-12.3958 -47.3129,-2.8974 z"
             inkscape:connector-curvature="0"
             style="fill:#423259;fill-opacity:1" />
          <path
             id="path14061"
             d="m 155.72899,1254.5924 c 16.1294,-3.9129 35.87298,-2.3895 47.25316,11.1412 11.29058,13.6801 12.69444,32.3484 12.99313,49.344 0.0299,45.8792 0,91.7584 0,137.6376 -9.97633,0 -19.9228,0 -29.86926,0 -0.0896,-46.8649 0.17922,-93.6999 -0.11948,-140.5349 -0.83633,-9.7971 -0.26882,-22.8201 -9.85685,-28.6147 -9.52829,-2.3896 -19.59423,0.448 -28.76409,3.1661 -22.40195,7.7959 -41.18971,23.3279 -57.438582,40.204 -3.405096,3.1064 -2.00124,8.1543 -2.479149,12.2464 0.179216,37.8444 0.05974,75.6887 0.08961,113.5331 -9.946462,-0.03 -19.922794,0 -29.869256,0 0.119477,-65.354 -0.268823,-130.678 0.209085,-196.032 9.826985,0.1494 19.65397,0.1494 29.510825,0.03 0.209085,13.7697 0.119477,27.5395 0.238954,41.3391 19.594233,-18.5787 41.279313,-36.8886 68.101903,-43.4598 z"
             inkscape:connector-curvature="0"
             style="fill:#423259;fill-opacity:1" />
          <path
             id="path14063"
             d="m 785.82094,1254.6521 c 15.53202,-3.7336 34.28991,-2.7181 45.93892,9.5283 12.00744,12.7841 13.94894,31.3926 14.39698,48.1194 0.14935,46.8051 0,93.6102 0.0597,140.4154 -9.97633,0 -19.92279,0 -29.86926,0 -0.17921,-47.8804 0.35843,-95.7609 -0.23895,-143.6413 -0.89608,-9.1997 -1.10516,-22.6707 -11.64901,-26.1356 -29.83939,-1.6727 -55.97499,16.906 -76.76399,36.4106 -3.58431,4.1519 -9.94646,7.4076 -9.79711,13.6204 -0.32857,39.9053 0,79.8405 -0.11948,119.7459 -9.97633,0 -19.92279,0 -29.86926,0 0.11948,-65.354 -0.26882,-130.678 0.20909,-196.032 9.82698,0.1494 19.6241,0.1494 29.45108,0.03 0.2987,13.7697 0.20909,27.5395 0.23896,41.3391 19.6241,-18.4891 41.21957,-36.8288 68.01229,-43.4001 z"
             inkscape:connector-curvature="0"
             style="fill:#423259;fill-opacity:1" />
          <path
             id="path14065"
             d="m 932.12056,1260.9545 c 30.58612,-15.5618 69.68494,-8.4231 95.73094,12.9932 -5.944,6.3024 -11.9775,12.5152 -17.9813,18.7877 -16.45793,-13.7996 -40.65202,-21.0578 -61.0826,-12.2464 -16.12939,6.7505 -22.61102,33.0952 -6.72058,43.5195 23.4175,14.6957 53.25689,15.4723 75.62898,32.2887 28.316,20.4306 25.7473,69.7149 -4.3012,87.4871 -38.32225,23.5967 -93.87907,10.723 -118.84976,-26.5837 6.57123,-5.5557 13.17234,-11.0815 19.7137,-16.6372 8.81144,13.023 21.29678,23.8058 36.64958,28.107 16.21901,4.9882 35.93272,4.6895 49.37388,-6.84 12.575,-10.3945 14.0983,-32.8264 -0.06,-42.5637 -23.56688,-16.7866 -55.64646,-16.219 -78.0484,-35.1561 -25.86678,-21.2072 -20.10201,-68.5201 9.94646,-83.1561 z"
             inkscape:connector-curvature="0"
             style="fill:#423259;fill-opacity:1" />
          <path
             id="path14067"
             d="m 1143.2663,1254.5625 c 27.0616,-4.8089 58.4542,-0.5376 78.2575,20.1916 19.9825,21.028 24.7915,51.5842 24.8811,79.512 -0.1195,27.868 -4.9285,58.3048 -24.8811,79.273 -17.8917,19.0267 -45.7597,24.1045 -70.7603,21.3864 -21.5357,-1.7026 -42.5637,-12.7542 -54.4516,-31.0342 -14.6658,-22.2526 -17.5632,-49.8816 -16.9658,-75.8977 0.687,-23.3279 5.0479,-47.8207 19.3553,-66.9072 10.6036,-14.3671 27.0914,-23.5668 44.5649,-26.5239 m 6.0934,23.7162 c -12.0672,3.1064 -22.7604,11.201 -28.7044,22.163 -10.4841,19.0566 -12.0074,41.4884 -11.1711,62.7852 0.9857,18.1904 4.5999,37.3963 16.219,51.9725 18.1008,22.0136 56.1243,22.0136 74.1654,-0.06 13.023,-16.1592 15.9502,-37.8742 16.4878,-57.9762 0.1493,-21.476 -2.2402,-44.5948 -15.2035,-62.4865 -11.649,-15.6813 -33.3639,-21.2669 -51.7932,-16.3982 z"
             inkscape:connector-curvature="0"
             style="fill:#423259;fill-opacity:1" />
          <path
             id="path14069"
             d="m 281.77725,1256.2053 c 9.88672,0.06 19.77345,0.06 29.69004,0 0.20908,65.5033 0.0299,131.0066 0.0896,196.5099 -9.94647,0 -19.9228,0 -29.86926,0 0.0597,-65.5033 -0.11948,-131.0066 0.0896,-196.5099 z"
             inkscape:connector-curvature="0"
             style="fill:#423259;fill-opacity:1" />
        </g>
      </g>
    </g>
  </g>
</svg>
