<?xml version="1.0" encoding="UTF-8" ?>
<!DOCTYPE svg PUBLIC "-//W3C//DTD SVG 1.1//EN" "http://www.w3.org/Graphics/SVG/1.1/DTD/svg11.dtd">
<svg width="966pt" height="935pt" viewBox="0 0 966 935" version="1.1" xmlns="http://www.w3.org/2000/svg">
<g id="#000000ff">
<path fill="#000000" opacity="1.00" d=" M 937.66 0.00 L 938.09 0.00 C 932.78 12.04 925.25 22.98 916.79 33.01 C 913.03 37.66 907.32 40.02 903.17 44.23 C 898.98 48.07 895.77 52.81 891.76 56.80 C 888.63 59.99 883.88 61.63 881.99 65.94 C 879.29 71.93 873.87 75.88 869.00 79.99 C 865.78 82.75 861.56 84.71 859.70 88.73 C 858.33 91.47 856.55 93.96 854.53 96.25 C 853.67 95.20 852.81 94.15 851.96 93.11 C 840.92 101.59 831.05 111.47 820.53 120.58 C 813.15 127.48 804.95 133.59 798.58 141.49 C 790.00 151.61 779.17 159.67 771.10 170.20 C 777.36 166.64 782.47 161.49 788.00 156.94 C 796.37 149.35 804.74 141.75 812.90 133.91 C 825.29 122.33 837.03 110.00 850.24 99.35 C 849.90 100.37 849.21 102.40 848.86 103.42 C 857.79 98.28 864.68 90.40 873.17 84.63 C 872.65 85.59 871.61 87.52 871.09 88.49 C 881.53 86.11 886.48 75.44 895.05 70.03 C 892.41 75.28 886.88 78.44 884.94 84.12 C 889.04 82.88 891.82 79.59 894.70 76.64 C 897.68 73.50 902.09 72.11 904.68 68.54 C 909.70 62.06 915.85 56.54 922.45 51.70 C 918.70 62.13 908.17 67.86 903.71 77.83 C 900.73 83.15 896.90 88.19 891.78 91.62 C 892.91 88.90 894.23 86.28 895.40 83.58 C 889.29 87.77 883.86 93.12 880.04 99.49 C 881.83 98.76 883.63 97.99 885.43 97.23 C 878.73 105.84 870.17 112.75 862.67 120.63 C 856.82 126.86 849.66 132.11 845.57 139.78 C 851.27 137.97 855.52 133.64 860.00 129.90 C 867.62 123.59 874.37 116.32 881.55 109.52 C 886.34 104.63 891.76 100.17 895.32 94.22 C 898.32 89.34 903.01 85.90 907.31 82.25 C 920.16 71.36 929.20 56.77 941.54 45.40 C 941.44 55.05 933.44 61.34 929.07 69.10 C 934.84 66.04 937.14 59.49 942.18 55.63 C 942.18 63.40 935.89 69.33 935.92 77.16 C 940.69 72.15 944.83 66.58 949.70 61.66 C 947.44 65.96 944.76 70.04 942.77 74.47 C 951.38 69.22 957.58 60.95 965.81 55.17 C 956.45 68.19 943.16 77.97 934.51 91.56 C 931.94 95.32 928.95 98.76 926.07 102.28 C 926.43 103.21 926.81 104.15 927.19 105.08 C 919.81 117.08 909.41 126.85 901.66 138.60 C 896.23 146.55 888.47 152.92 884.59 161.88 C 883.18 164.91 879.99 166.52 878.29 169.35 C 876.24 172.74 874.98 176.54 872.88 179.91 C 868.91 186.40 863.59 191.92 859.19 198.10 C 857.20 200.68 857.48 204.19 855.89 206.92 C 853.69 209.95 850.68 212.24 848.02 214.83 C 836.20 226.16 823.81 236.91 812.47 248.74 C 813.04 248.98 814.16 249.47 814.73 249.72 C 808.61 259.60 798.99 266.33 790.59 274.09 C 799.33 291.79 809.92 308.84 815.14 328.04 C 818.42 339.18 821.65 350.34 824.56 361.59 C 827.48 371.58 828.85 381.93 830.85 392.12 C 832.22 400.75 833.81 409.34 834.88 418.01 C 835.81 430.97 835.83 444.01 837.33 456.93 C 837.98 462.59 838.57 468.27 838.64 473.97 C 838.56 484.35 836.61 494.58 835.31 504.85 C 834.40 511.84 832.55 518.66 830.54 525.41 C 825.39 541.82 823.16 558.95 818.55 575.50 C 820.20 573.78 821.79 572.01 823.48 570.33 C 821.92 577.47 818.51 583.99 815.76 590.70 C 812.97 597.09 810.37 603.56 807.54 609.93 C 806.04 613.41 802.46 615.51 801.07 619.02 C 801.16 621.38 802.23 623.70 801.79 626.07 C 800.61 629.24 798.34 631.85 796.86 634.87 C 794.53 639.48 792.40 644.21 789.57 648.56 C 779.99 663.67 769.57 678.29 757.82 691.79 C 753.43 696.94 748.33 701.44 744.05 706.69 C 745.88 706.42 747.71 706.16 749.56 705.91 C 743.42 711.69 737.02 717.20 730.89 722.99 C 728.31 725.31 726.72 728.63 723.85 730.61 C 721.19 731.19 718.37 730.83 715.81 731.78 C 713.33 733.84 713.44 737.76 710.84 739.78 C 705.26 744.36 699.26 748.58 692.51 751.25 C 690.19 752.43 687.11 753.10 685.93 755.69 C 684.92 757.40 684.50 759.54 683.03 760.95 C 679.70 762.92 675.70 763.39 672.45 765.50 C 670.22 767.21 668.90 769.85 666.61 771.48 C 658.32 775.81 648.16 775.81 640.61 781.64 C 633.65 786.10 625.41 787.72 617.85 790.82 C 608.85 794.46 599.28 796.23 589.87 798.41 C 582.25 800.15 574.57 801.62 566.82 802.60 C 573.43 800.11 580.24 798.18 586.96 795.98 C 608.92 788.97 630.72 781.04 651.02 769.99 C 659.22 765.25 667.74 760.75 674.78 754.33 C 670.63 755.16 666.86 757.11 663.14 759.03 C 663.48 757.89 664.15 755.61 664.49 754.47 C 661.61 756.27 658.53 757.78 655.87 759.89 C 653.68 761.65 652.89 764.97 650.04 765.88 C 645.57 767.50 640.88 768.48 636.57 770.53 C 626.36 775.32 616.16 780.11 605.97 784.93 C 603.30 786.24 600.34 786.89 597.38 786.54 C 606.03 780.86 615.80 777.14 624.49 771.53 C 628.37 769.10 632.09 766.41 635.81 763.75 C 639.29 761.08 643.82 760.65 647.65 758.67 C 655.62 754.66 662.41 748.76 669.74 743.75 C 676.21 739.33 682.12 734.18 687.79 728.78 C 691.14 725.47 695.33 722.74 697.15 718.20 C 690.88 721.51 685.92 726.79 679.60 729.99 C 682.53 725.48 687.19 722.58 691.04 718.95 C 700.24 711.18 708.83 702.74 717.60 694.49 C 729.94 682.38 741.22 669.12 750.66 654.62 C 751.53 653.12 752.91 651.54 751.86 649.75 C 749.19 651.80 747.34 654.66 745.34 657.33 C 739.38 665.33 733.71 673.56 727.25 681.18 C 722.75 686.48 716.35 689.60 711.44 694.47 C 708.89 697.05 705.90 699.13 702.72 700.86 C 698.48 703.15 696.40 707.77 692.90 710.89 C 689.81 713.81 685.72 716.55 681.26 715.30 C 684.13 712.88 687.45 711.04 690.25 708.55 C 690.02 707.92 689.55 706.68 689.32 706.06 C 674.70 717.62 659.83 728.90 644.03 738.80 C 629.88 747.12 615.83 755.94 600.36 761.63 C 602.04 759.82 604.07 758.39 606.25 757.25 C 620.11 749.67 633.93 741.95 647.12 733.24 C 650.01 731.30 652.06 728.44 653.66 725.40 C 645.39 729.43 637.68 734.49 629.40 738.50 C 615.24 746.14 600.36 752.31 585.37 758.09 C 585.46 757.71 585.59 757.33 585.71 756.97 C 589.91 755.80 593.64 753.51 597.45 751.47 C 601.97 749.01 606.73 746.93 610.84 743.80 C 605.21 743.15 600.54 746.62 595.70 748.83 C 584.73 754.29 573.11 758.24 561.67 762.56 C 559.10 763.63 556.31 763.86 553.56 763.85 C 561.96 758.85 571.42 755.92 579.73 750.77 C 577.64 750.61 575.55 750.50 573.47 750.42 C 576.83 748.50 580.36 746.83 583.31 744.29 C 590.04 738.38 598.01 734.19 605.72 729.75 C 620.94 721.54 634.35 710.52 648.48 700.66 C 651.91 698.40 654.87 695.40 656.47 691.57 C 650.05 693.32 645.14 698.00 640.35 702.36 C 634.61 707.68 627.41 710.94 620.63 714.67 C 614.17 718.23 606.94 720.03 600.30 723.18 C 597.35 724.58 594.28 725.90 590.98 726.08 C 585.94 726.41 581.02 727.60 576.00 728.09 C 580.80 723.93 586.66 721.38 592.08 718.17 C 599.49 714.07 606.68 709.57 613.30 704.28 C 620.94 698.13 629.05 692.62 636.93 686.80 C 641.06 683.69 645.77 681.11 648.74 676.75 C 622.31 690.92 597.87 709.08 569.78 720.05 C 573.29 717.45 576.95 715.06 580.32 712.27 C 585.37 708.10 591.43 705.44 596.82 701.76 C 605.50 695.91 613.57 689.21 622.08 683.10 C 624.60 681.58 625.43 678.69 626.06 676.01 C 620.42 679.71 615.64 684.76 609.27 687.30 C 604.05 689.93 597.98 690.13 592.84 692.87 C 585.68 697.66 579.82 704.25 572.28 708.50 C 574.06 705.61 576.34 703.08 578.54 700.51 C 571.62 703.25 565.41 707.76 558.09 709.41 C 561.85 705.01 567.59 703.26 572.36 700.24 C 590.26 689.57 607.22 677.17 622.33 662.79 C 616.33 663.23 612.24 668.54 606.63 670.27 C 611.70 665.71 617.75 662.41 622.80 657.82 C 638.40 643.46 654.26 629.20 667.35 612.43 C 678.79 598.31 688.75 582.98 696.82 566.68 C 702.39 556.50 707.15 545.88 710.91 534.90 C 714.77 523.28 716.53 511.13 718.74 499.13 C 720.57 489.17 721.96 479.12 722.58 469.01 C 722.97 452.62 722.68 436.23 721.87 419.87 C 720.97 403.62 717.65 387.56 712.99 372.00 C 710.44 364.11 707.60 356.32 704.90 348.48 C 701.29 351.57 697.71 354.71 694.14 357.86 C 696.27 364.01 699.13 369.93 700.48 376.32 C 699.15 375.30 698.08 374.03 697.56 372.45 C 695.89 367.98 694.43 363.44 692.64 359.02 C 678.98 371.26 665.08 383.23 651.25 395.27 C 647.20 398.89 644.20 403.72 639.31 406.34 C 634.45 409.01 629.44 411.42 624.65 414.22 C 632.81 404.18 642.40 395.43 651.19 385.95 C 644.57 390.88 637.58 395.24 630.57 399.57 C 615.76 410.21 602.45 422.75 589.13 435.16 C 582.34 441.96 574.80 448.16 569.30 456.13 C 573.64 454.69 578.23 453.61 582.00 450.89 C 585.40 448.45 589.08 446.25 593.31 445.68 C 592.27 452.44 586.29 456.29 581.93 460.89 C 569.96 472.94 557.42 484.41 545.10 496.10 C 489.90 548.24 433.75 599.36 377.70 650.57 C 382.30 651.84 386.79 653.48 391.26 655.18 C 390.07 652.46 388.85 649.76 387.68 647.04 C 393.58 650.25 399.26 653.85 405.29 656.80 C 406.03 656.04 406.78 655.28 407.53 654.54 C 412.27 655.53 417.30 655.95 421.57 658.46 C 428.70 662.71 435.31 667.85 441.23 673.67 C 450.02 682.10 455.92 692.90 461.05 703.81 C 461.97 703.07 462.91 702.33 463.85 701.61 C 464.83 709.50 466.99 717.52 465.27 725.47 C 464.09 730.70 461.84 735.65 459.33 740.37 C 456.95 744.89 452.26 747.75 450.44 752.62 C 448.14 758.52 442.52 761.92 437.92 765.87 C 433.29 769.97 427.29 771.83 421.51 773.62 C 417.11 775.28 412.54 772.95 408.04 773.79 C 402.57 774.08 398.47 778.54 393.00 778.86 C 381.87 780.13 370.08 781.78 359.35 777.56 C 340.81 770.61 324.58 758.90 308.70 747.32 C 302.70 742.88 296.28 739.05 290.26 734.64 C 286.43 737.96 282.29 741.02 279.18 745.08 C 268.52 758.97 255.39 770.66 242.92 782.87 C 228.63 796.92 213.66 810.25 198.92 823.82 C 184.69 836.79 169.28 848.34 153.85 859.83 C 146.66 865.30 138.39 869.02 130.58 873.49 C 115.98 882.84 100.37 890.46 85.58 899.50 C 80.96 902.15 76.58 905.26 71.61 907.26 C 81.30 899.58 92.09 893.42 102.00 886.03 C 104.32 884.13 107.23 882.25 107.76 879.05 C 108.32 875.68 110.30 872.89 112.14 870.12 C 110.25 870.41 108.36 870.74 106.48 871.10 C 105.01 873.67 103.73 876.56 101.16 878.25 C 96.13 881.75 90.78 884.89 84.95 886.86 C 87.78 884.14 90.85 881.67 93.47 878.73 C 82.67 882.50 74.28 890.77 64.20 895.95 C 66.46 892.43 69.14 889.21 71.71 885.92 C 55.42 896.42 40.45 908.81 24.76 920.18 C 24.64 918.95 24.50 917.74 24.36 916.53 C 24.73 915.90 25.46 914.65 25.83 914.02 C 25.28 913.42 24.16 912.21 23.61 911.61 C 32.11 908.52 37.62 900.98 43.65 894.67 C 46.69 891.71 46.25 887.19 46.98 883.37 C 42.97 885.58 39.17 889.24 34.22 888.41 C 34.36 889.38 34.53 890.35 34.72 891.33 C 31.66 891.81 28.60 892.43 25.74 893.68 C 31.33 886.95 37.59 880.72 42.38 873.38 C 37.18 875.82 32.80 879.65 27.66 882.22 C 29.48 879.04 31.85 876.25 34.21 873.48 C 31.51 874.68 29.03 876.28 26.54 877.85 C 29.96 872.26 35.22 868.01 37.89 861.91 C 35.38 863.98 32.73 865.92 29.75 867.30 C 33.16 858.11 42.50 852.71 46.29 843.70 C 41.64 845.31 38.30 849.26 33.60 850.81 C 34.98 848.12 36.55 845.54 37.94 842.87 C 30.66 845.28 26.08 851.81 19.70 855.70 C 22.01 850.59 25.76 846.38 29.13 841.97 C 33.93 835.87 37.88 829.07 40.84 821.90 C 42.10 819.40 40.96 816.75 40.15 814.34 C 36.10 816.45 33.10 819.93 30.05 823.24 C 31.43 818.69 33.99 814.66 37.19 811.20 C 38.90 809.49 39.79 807.26 39.79 804.86 C 41.69 803.14 43.64 801.48 45.56 799.80 C 46.63 797.22 47.90 794.73 49.48 792.43 C 55.84 782.95 62.66 773.76 69.95 764.96 C 71.87 762.48 74.10 760.05 74.97 756.96 C 75.66 754.39 74.13 751.99 73.29 749.67 C 67.07 752.64 62.38 757.76 57.32 762.27 C 51.42 767.59 45.62 773.09 38.87 777.34 C 48.36 764.74 56.99 751.39 68.46 740.44 C 82.92 725.58 98.70 712.10 114.01 698.15 C 128.03 685.77 142.01 673.34 156.38 661.37 C 168.55 650.87 181.33 641.10 193.66 630.80 C 189.54 624.13 184.86 617.81 181.13 610.91 C 173.09 595.49 165.55 579.75 159.39 563.48 C 155.78 553.00 152.30 542.48 148.74 531.99 C 150.60 533.23 152.47 534.46 154.39 535.63 C 152.73 531.12 150.36 526.94 148.31 522.62 C 146.52 518.97 146.12 514.89 145.59 510.93 C 143.16 494.76 142.74 478.37 142.63 462.05 C 142.66 456.61 142.40 451.15 143.14 445.75 C 144.32 448.06 145.28 450.51 145.50 453.13 C 146.93 465.38 146.42 477.85 149.03 489.96 C 150.65 497.49 151.14 505.19 152.34 512.79 C 154.11 521.88 156.44 530.87 159.13 539.73 C 160.68 544.82 163.62 549.29 165.92 554.05 C 168.08 558.47 169.04 563.33 170.77 567.91 C 172.45 565.77 171.91 563.12 171.17 560.74 C 166.92 546.28 163.38 531.61 158.48 517.35 C 154.74 506.04 151.59 494.41 151.31 482.42 C 150.89 461.95 151.33 441.47 151.92 421.01 C 152.10 410.58 153.94 400.27 155.97 390.06 C 156.82 385.81 159.19 382.07 160.27 377.89 C 161.89 372.00 162.97 365.96 164.64 360.09 C 166.25 354.17 171.32 349.96 172.95 344.06 C 174.30 339.50 172.30 334.56 174.24 330.11 C 179.78 316.08 185.51 302.12 191.09 288.11 C 192.63 284.32 193.53 280.13 196.33 277.00 C 197.25 287.59 189.84 295.97 186.15 305.25 C 185.07 307.37 186.28 309.62 186.81 311.71 C 192.69 300.62 197.11 288.81 202.50 277.48 C 203.16 276.22 204.15 275.27 205.46 274.63 C 204.70 280.55 203.24 286.42 200.80 291.88 C 199.23 295.55 197.21 299.09 196.54 303.07 C 195.98 306.94 197.37 310.72 198.28 314.43 C 201.91 307.91 204.25 300.68 208.63 294.60 C 207.87 300.48 205.93 306.11 204.32 311.81 C 209.38 306.32 213.63 300.04 219.36 295.21 C 218.39 300.78 216.08 305.98 214.29 311.31 C 209.07 326.60 202.39 341.41 198.44 357.12 C 196.04 365.89 194.87 374.94 194.36 384.01 C 203.11 365.09 207.14 344.33 216.86 325.83 C 216.37 328.83 215.89 331.83 215.66 334.87 C 219.67 329.39 220.65 322.24 225.24 317.15 C 224.49 330.03 218.90 341.96 216.89 354.60 C 222.09 344.90 224.84 334.05 230.28 324.48 C 230.41 326.78 230.46 329.09 230.59 331.40 C 234.01 325.77 236.57 319.67 239.76 313.91 C 245.46 302.84 252.17 292.33 258.86 281.83 C 260.28 279.18 262.75 277.43 265.40 276.15 C 262.45 285.65 255.91 293.45 250.74 301.81 C 244.96 310.08 241.58 319.69 238.26 329.13 C 237.32 330.87 238.70 332.33 239.54 333.75 C 239.91 332.43 240.27 331.10 240.63 329.78 C 241.37 330.62 242.12 331.46 242.86 332.31 C 248.70 321.52 254.46 310.69 259.88 299.69 C 264.38 291.27 267.22 281.88 273.23 274.32 C 281.00 264.60 289.10 255.04 295.75 244.52 C 289.13 249.33 284.01 255.92 277.26 260.59 C 283.38 251.65 290.58 243.51 297.14 234.91 C 297.68 235.55 298.74 236.82 299.27 237.46 C 301.22 236.02 303.13 234.52 304.93 232.89 C 315.91 222.82 326.74 212.54 338.50 203.37 C 343.17 199.76 348.46 197.07 353.90 194.82 C 369.63 188.18 385.50 181.87 401.30 175.39 C 413.83 170.17 426.81 165.71 438.28 158.30 C 435.83 158.61 433.37 158.88 430.91 159.02 C 434.24 156.60 438.40 155.86 441.96 153.93 C 443.09 152.33 443.78 150.47 444.96 148.91 C 448.05 147.44 451.61 147.64 454.93 147.09 C 460.86 146.62 465.97 142.76 472.03 142.94 C 487.97 142.50 503.96 141.61 519.89 142.59 C 533.15 143.53 546.14 146.57 558.94 150.01 C 568.28 152.47 577.88 153.87 587.14 156.67 C 594.31 158.81 601.05 162.11 607.88 165.12 C 618.46 169.73 628.84 174.77 639.20 179.84 C 648.15 184.78 657.05 189.83 665.61 195.42 C 668.07 196.96 670.42 198.71 673.09 199.90 C 677.48 196.55 681.30 192.50 685.91 189.39 C 682.75 186.68 679.38 184.20 675.74 182.18 C 668.09 177.90 660.45 173.57 652.95 169.01 C 647.75 165.87 642.98 161.74 639.96 156.39 C 645.59 158.17 649.19 163.30 654.58 165.51 C 661.06 168.32 667.91 170.36 673.97 174.05 C 682.27 179.20 691.14 183.30 699.89 187.59 C 700.02 188.11 700.27 189.16 700.40 189.68 C 702.91 187.49 705.31 185.17 707.67 182.83 C 706.38 181.51 705.10 180.19 703.83 178.86 C 705.84 179.73 707.84 180.62 709.86 181.47 C 709.69 180.52 709.36 178.60 709.20 177.65 C 710.03 178.03 710.87 178.43 711.72 178.82 C 727.09 163.48 742.87 148.54 759.24 134.27 C 762.87 131.09 767.56 129.41 771.03 126.00 C 782.01 115.70 793.04 105.43 804.02 95.12 C 808.05 91.66 812.38 86.32 818.35 87.87 C 818.57 90.93 815.74 92.85 813.90 94.86 C 795.11 112.77 776.58 130.95 758.21 149.29 C 745.57 162.83 732.79 176.23 719.86 189.48 C 721.81 190.35 723.76 191.21 725.72 192.07 C 735.75 182.29 745.57 172.29 755.58 162.48 C 759.77 158.29 764.99 155.38 769.49 151.56 C 777.89 144.20 785.70 136.18 794.28 129.02 C 794.57 130.52 794.89 132.03 795.21 133.53 C 798.57 131.82 801.50 129.42 804.27 126.89 C 804.19 128.53 804.14 130.17 804.12 131.81 C 805.31 130.57 806.47 129.28 807.57 127.95 C 806.78 127.25 805.99 126.54 805.22 125.84 C 807.19 125.53 809.73 126.04 811.14 124.18 C 816.14 118.96 821.72 114.09 825.34 107.73 C 823.82 107.04 822.34 106.34 820.85 105.63 C 819.48 106.29 818.12 106.94 816.76 107.59 C 819.96 102.29 824.33 97.10 830.65 95.63 C 831.25 96.69 831.87 97.75 832.50 98.80 C 835.79 95.33 838.79 91.56 840.86 87.22 C 839.10 87.96 837.38 88.73 835.64 89.48 C 837.19 86.53 838.83 83.54 841.38 81.32 C 844.86 78.05 849.99 76.94 852.87 72.97 C 855.29 69.83 857.81 66.73 860.97 64.28 C 867.15 59.44 873.35 54.62 879.74 50.06 C 879.38 50.96 878.67 52.77 878.31 53.67 C 883.35 51.00 886.18 45.92 890.08 42.00 C 895.64 36.27 901.26 30.56 907.53 25.61 C 907.71 30.63 904.60 34.63 902.95 39.12 C 909.10 36.01 912.08 29.47 916.36 24.42 C 923.25 16.11 929.95 7.59 937.66 0.00 M 862.69 110.70 C 859.36 113.88 855.75 116.99 853.74 121.22 C 858.01 120.30 861.09 116.99 864.20 114.17 C 866.50 111.84 869.41 109.59 869.58 106.01 C 866.90 106.96 864.71 108.77 862.69 110.70 M 832.72 130.71 C 818.97 143.26 805.56 156.18 792.14 169.08 C 788.21 173.09 783.88 176.79 780.70 181.46 C 783.94 180.41 786.76 178.46 789.78 176.93 C 782.13 184.95 774.04 192.53 766.29 200.46 C 764.56 202.19 763.25 204.27 762.00 206.36 C 762.85 206.48 764.57 206.73 765.42 206.85 C 765.09 207.66 764.42 209.29 764.09 210.10 C 765.70 209.56 767.26 208.81 768.55 207.64 C 778.56 198.66 788.54 189.62 797.72 179.78 C 804.34 172.71 808.88 163.48 817.42 158.39 C 822.15 155.63 825.98 151.65 829.83 147.81 C 832.64 144.81 835.90 141.84 836.73 137.61 C 835.05 138.04 833.41 138.51 831.75 138.98 C 837.61 129.98 845.32 122.43 852.77 114.78 C 854.43 113.10 855.91 111.26 857.20 109.27 C 848.34 115.56 840.81 123.50 832.72 130.71 M 786.01 146.93 C 784.87 148.58 782.91 150.34 783.71 152.57 C 786.84 151.33 789.15 148.81 791.51 146.51 C 795.85 142.07 800.19 137.48 803.10 131.94 C 796.41 135.65 790.97 141.19 786.01 146.93 M 776.02 148.94 C 773.83 151.32 771.53 153.81 770.74 157.05 C 773.79 155.46 776.45 153.26 778.85 150.80 C 781.74 147.81 784.91 144.82 786.28 140.77 C 782.19 142.54 779.04 145.76 776.02 148.94 M 502.75 159.67 C 503.79 160.33 504.75 161.29 506.05 161.38 C 515.41 162.10 524.90 162.13 534.11 164.18 C 539.00 165.20 542.57 169.08 547.24 170.63 C 553.25 172.71 559.71 172.28 565.95 172.99 C 572.54 173.54 578.74 176.02 585.07 177.77 C 595.83 180.77 607.02 183.36 616.50 189.56 C 631.38 199.04 646.78 207.67 661.71 217.08 C 662.83 216.12 663.96 215.16 665.09 214.21 C 657.28 207.95 650.13 200.87 641.82 195.24 C 634.31 190.15 626.39 185.55 617.96 182.19 C 614.45 180.46 610.64 183.44 607.15 181.71 C 597.12 177.45 587.43 172.20 576.90 169.20 C 566.68 166.14 556.41 163.26 546.03 160.80 C 531.82 157.68 517.13 157.96 502.75 159.67 M 409.83 181.78 C 394.80 189.18 380.48 197.91 365.68 205.76 C 357.45 210.08 350.29 216.19 344.31 223.26 C 336.71 232.35 328.52 240.91 320.30 249.43 C 312.29 258.40 304.87 267.89 296.61 276.64 C 294.17 279.46 291.04 282.23 290.70 286.19 C 293.26 283.95 295.41 281.30 297.78 278.87 C 291.23 290.79 281.59 300.91 276.54 313.64 C 275.66 314.94 276.81 316.06 277.41 317.18 C 281.29 309.40 286.52 302.41 291.07 295.03 C 296.65 286.83 300.62 277.62 306.75 269.79 C 312.28 262.33 318.93 255.81 325.16 248.96 C 330.87 242.51 337.68 237.19 343.83 231.19 C 344.03 233.06 342.31 235.97 344.69 236.89 C 346.99 234.03 348.78 230.81 350.95 227.87 C 350.25 234.17 346.80 239.74 342.73 244.44 C 340.57 247.00 337.85 249.18 336.57 252.36 C 338.01 251.90 339.83 252.10 341.02 251.02 C 342.53 249.26 343.43 246.93 345.47 245.66 C 348.18 243.97 351.39 243.39 354.47 242.74 C 351.84 248.73 345.50 251.80 342.64 257.62 C 341.47 259.87 340.91 262.39 339.63 264.60 C 336.88 266.01 333.31 265.77 331.07 268.18 C 328.45 270.99 327.56 274.89 326.40 278.44 C 324.88 278.56 323.31 278.45 321.88 279.04 C 320.81 281.22 320.97 283.71 320.71 286.06 C 320.15 285.58 319.02 284.60 318.45 284.11 C 309.89 299.27 301.66 314.62 293.42 329.95 C 292.13 327.67 290.89 325.35 289.61 323.07 C 287.53 327.66 283.86 331.80 283.85 337.10 C 283.80 340.63 282.20 343.81 280.71 346.92 C 279.84 346.41 278.98 345.91 278.13 345.41 C 277.43 347.54 276.73 349.67 275.97 351.77 C 274.06 353.08 271.68 354.40 271.27 356.91 C 268.49 370.23 265.81 383.58 263.90 397.06 C 263.41 400.94 263.56 404.86 263.61 408.76 C 263.13 408.73 262.17 408.67 261.69 408.64 C 261.53 406.15 261.33 403.66 260.94 401.20 C 259.21 404.38 258.61 407.99 257.62 411.43 C 259.42 412.37 261.24 413.29 263.05 414.22 C 264.12 411.81 264.77 409.00 267.02 407.36 C 267.18 409.48 267.25 411.62 267.31 413.76 C 268.14 413.83 269.81 413.98 270.64 414.06 C 269.13 422.34 270.41 430.74 270.55 439.07 C 271.38 451.80 272.35 464.55 274.42 477.15 C 275.14 481.22 277.55 484.80 278.01 488.95 C 278.16 491.12 279.01 493.86 276.86 495.43 C 273.01 482.01 270.13 468.32 266.58 454.82 C 266.22 453.81 265.68 452.91 264.95 452.12 C 264.32 457.44 264.44 462.84 265.26 468.13 C 267.01 478.84 268.60 489.64 272.02 499.98 C 276.53 513.89 281.84 527.84 290.61 539.68 C 297.51 534.81 303.74 528.59 311.92 525.88 C 320.38 522.83 327.15 516.64 333.91 510.93 C 340.68 504.68 347.14 498.10 353.98 491.94 C 356.27 489.62 359.94 490.42 362.44 488.49 C 368.26 484.39 373.31 479.33 378.76 474.77 C 399.32 456.66 420.34 439.08 440.72 420.77 C 454.23 409.05 466.12 395.58 479.98 384.26 C 483.96 380.99 488.90 379.15 492.80 375.76 C 506.97 364.33 520.00 351.54 534.00 339.89 C 538.56 335.95 544.25 333.72 548.98 330.01 C 558.05 323.07 567.01 315.97 576.04 308.96 C 591.27 296.92 606.97 285.41 621.00 271.95 C 625.92 267.18 631.49 262.57 634.07 256.02 C 628.89 257.07 625.25 261.31 620.77 263.83 C 621.98 261.80 623.37 259.89 624.80 258.02 C 622.19 259.37 619.67 260.89 617.00 262.08 C 614.54 263.23 611.59 262.82 609.28 264.33 C 607.07 265.64 605.42 267.65 603.82 269.61 C 604.53 269.76 605.96 270.05 606.67 270.20 C 601.34 275.39 595.70 280.24 589.82 284.79 C 586.65 287.36 582.30 287.61 579.08 290.08 C 573.33 293.78 568.46 298.81 562.22 301.70 C 563.63 297.68 567.26 295.17 570.17 292.28 C 580.70 283.18 591.30 274.15 601.94 265.18 C 607.72 260.21 613.90 255.58 618.67 249.57 C 621.33 246.22 625.26 244.32 629.02 242.47 C 627.89 241.72 626.76 240.99 625.64 240.26 C 614.03 230.49 600.61 222.77 586.03 218.45 C 571.73 213.57 556.84 210.75 542.00 208.07 C 524.59 204.96 506.82 207.01 489.43 209.23 C 471.97 211.03 454.49 214.76 438.69 222.63 C 424.29 228.35 410.85 236.11 396.95 242.87 C 393.49 244.59 389.21 244.48 386.25 247.17 C 381.97 250.73 377.73 254.33 373.45 257.87 C 372.53 255.91 371.59 253.96 370.55 252.06 C 369.73 255.15 369.29 258.58 367.04 261.04 C 364.33 264.01 360.87 266.13 357.89 268.80 C 346.31 279.22 336.48 291.35 325.99 302.81 C 325.19 301.88 324.39 300.96 323.55 300.09 C 321.32 304.38 320.00 309.20 316.91 313.00 C 307.17 325.35 304.93 341.43 298.48 355.41 C 296.24 359.08 294.07 362.85 293.33 367.16 C 291.50 375.76 288.60 384.09 284.53 391.89 C 283.99 389.83 283.46 387.79 282.93 385.74 C 283.39 385.64 284.31 385.45 284.77 385.35 C 291.02 372.68 288.73 357.44 296.40 345.30 C 300.26 337.84 301.44 329.26 305.87 322.05 C 311.89 312.48 317.91 302.89 324.92 293.99 C 341.02 271.48 362.87 253.63 386.66 239.78 C 387.28 240.70 387.90 241.63 388.53 242.56 C 396.61 237.94 404.87 233.63 413.02 229.14 C 427.80 221.22 442.25 212.68 457.35 205.39 C 468.51 200.61 480.78 199.73 492.31 196.23 C 491.26 195.66 490.38 194.52 489.09 194.63 C 479.11 194.67 469.28 196.65 459.82 199.73 C 456.12 201.12 451.87 200.55 448.35 202.33 C 442.82 207.20 434.88 207.44 427.90 206.88 C 427.58 201.87 431.96 198.55 433.22 193.98 C 427.64 196.04 422.27 198.64 416.57 200.37 C 412.22 201.68 407.38 201.76 403.50 204.38 C 399.32 206.90 395.89 210.62 391.31 212.45 C 390.20 213.13 389.24 212.31 388.45 211.61 C 395.38 207.46 402.22 203.13 409.36 199.34 C 412.09 197.82 413.52 194.64 416.51 193.46 C 421.75 191.10 427.61 190.56 432.86 188.16 C 437.46 186.03 442.71 184.83 446.50 181.29 C 440.13 180.33 434.73 184.54 428.60 185.22 C 430.75 183.46 432.99 181.78 434.97 179.82 C 431.76 180.43 428.68 181.53 425.48 182.13 C 427.25 178.87 431.06 177.76 434.05 175.94 C 436.67 174.33 440.33 173.75 441.64 170.62 C 430.51 172.59 420.13 177.30 409.83 181.78 M 745.59 182.94 C 746.03 183.51 746.92 184.66 747.37 185.23 C 745.54 187.27 743.73 189.42 742.92 192.09 C 746.46 191.19 747.95 187.72 750.12 185.17 C 753.76 180.72 758.63 177.25 761.20 171.98 C 755.36 174.61 750.45 178.87 745.59 182.94 M 382.83 188.80 C 381.56 189.43 381.00 190.68 380.80 192.01 C 392.36 186.53 403.65 180.46 414.93 174.41 C 403.07 176.00 392.61 182.30 382.83 188.80 M 740.07 188.29 C 738.54 191.31 743.40 188.41 740.07 188.29 M 674.76 201.53 C 675.81 202.18 676.88 202.84 677.95 203.51 C 681.89 200.27 685.78 196.97 689.83 193.88 C 688.68 192.66 687.55 191.45 686.41 190.25 C 682.81 194.30 678.69 197.82 674.76 201.53 M 683.86 203.86 C 683.19 204.87 681.20 205.60 681.92 207.05 C 684.05 206.98 685.23 204.92 686.72 203.69 C 688.96 201.13 692.26 199.20 693.11 195.70 C 689.53 197.81 686.89 201.09 683.86 203.86 M 663.79 218.50 C 665.38 219.59 666.96 220.68 668.56 221.78 C 669.35 220.86 670.21 219.98 670.95 219.00 C 669.63 217.69 668.15 216.56 666.72 215.39 C 665.73 216.42 664.75 217.46 663.79 218.50 M 637.45 245.08 C 634.51 247.83 631.38 250.36 628.21 252.84 C 631.43 251.15 634.63 249.41 637.88 247.77 C 637.93 248.42 638.03 249.72 638.09 250.37 C 639.03 249.68 640.00 249.01 640.96 248.33 C 639.78 247.24 638.62 246.16 637.45 245.08 M 633.29 246.29 C 633.77 246.85 633.77 246.85 633.29 246.29 M 595.74 276.92 C 598.02 275.66 601.37 274.99 602.10 272.06 C 599.55 273.02 597.28 274.63 595.74 276.92 M 300.98 308.64 C 304.93 304.91 306.39 299.37 309.02 294.73 C 304.90 298.30 300.78 302.79 300.98 308.64 M 275.71 302.87 C 271.28 310.81 266.47 318.55 262.16 326.55 C 263.46 326.65 264.97 326.97 265.38 325.33 C 270.32 316.07 277.51 307.83 280.11 297.47 C 277.90 298.56 276.87 300.84 275.71 302.87 M 203.39 312.58 C 201.99 318.47 200.06 324.26 199.16 330.27 C 201.36 325.92 203.37 321.44 206.62 317.75 C 208.36 315.42 204.86 313.85 203.39 312.58 M 240.27 333.44 C 237.78 340.46 235.72 347.61 233.29 354.64 C 233.92 354.69 235.17 354.78 235.79 354.83 C 237.69 348.79 239.87 342.84 241.61 336.76 C 242.19 335.41 240.88 334.45 240.27 333.44 M 208.96 383.43 C 211.03 379.88 212.21 375.88 213.02 371.88 C 212.73 371.40 212.16 370.45 211.87 369.98 C 210.67 374.35 207.81 378.79 208.96 383.43 M 271.94 514.79 C 273.63 519.99 275.97 524.93 278.00 530.00 C 278.55 529.76 279.67 529.27 280.23 529.02 C 278.10 524.42 276.53 519.54 274.06 515.11 C 273.53 515.03 272.47 514.87 271.94 514.79 M 254.19 538.19 C 253.56 547.58 257.65 556.39 260.93 564.96 C 263.03 563.03 265.24 561.19 267.03 558.98 C 264.74 554.25 258.73 552.34 257.54 546.97 C 256.55 543.99 255.65 540.97 254.19 538.19 M 272.36 553.71 C 273.75 554.02 274.28 553.50 273.97 552.14 C 272.59 551.79 272.05 552.31 272.36 553.71 M 687.17 638.96 C 684.72 642.31 681.89 645.41 679.91 649.09 C 682.83 648.18 684.18 645.22 686.05 643.07 C 688.45 639.67 691.84 636.83 693.12 632.76 C 690.38 633.98 688.93 636.70 687.17 638.96 M 645.29 654.29 C 640.24 660.06 635.97 666.45 630.87 672.18 C 635.19 669.54 638.67 665.80 642.29 662.30 C 646.14 658.09 650.27 653.95 652.84 648.78 C 649.98 650.10 647.33 651.88 645.29 654.29 M 665.01 661.95 C 665.25 662.34 665.74 663.11 665.98 663.50 C 670.19 659.82 674.39 656.04 677.90 651.67 L 676.02 651.86 C 671.94 654.69 668.49 658.42 665.01 661.95 M 653.45 671.52 C 653.47 672.09 653.50 673.23 653.51 673.80 C 656.86 670.65 661.32 668.25 663.27 663.92 C 659.74 666.09 656.46 668.68 653.45 671.52 M 50.07 887.76 C 51.47 888.11 51.99 887.60 51.64 886.23 C 50.23 885.88 49.71 886.39 50.07 887.76 Z" />
<path fill="#000000" opacity="1.00" d=" M 938.30 26.15 C 940.10 26.50 938.64 30.28 937.06 29.65 C 936.23 28.49 937.01 26.62 938.30 26.15 Z" />
<path fill="#000000" opacity="1.00" d=" M 924.09 43.13 C 926.16 38.53 930.24 35.39 934.05 32.28 C 931.27 36.35 928.19 40.33 924.09 43.13 Z" />
<path fill="#000000" opacity="1.00" d=" M 844.26 49.68 C 849.28 43.96 853.97 37.76 860.14 33.22 C 859.86 38.80 854.52 41.57 851.87 45.90 C 848.47 51.31 845.54 56.99 842.55 62.62 C 840.87 66.13 837.33 68.08 834.49 70.51 C 831.44 72.68 828.62 76.17 824.47 75.48 C 833.11 67.78 840.52 58.84 847.01 49.27 C 846.32 49.37 844.95 49.57 844.26 49.68 Z" />
<path fill="#000000" opacity="1.00" d=" M 890.38 38.10 C 890.92 38.66 890.92 38.66 890.38 38.10 Z" />
<path fill="#000000" opacity="1.00" d=" M 928.24 53.14 C 931.59 48.79 934.92 44.34 939.19 40.82 C 937.18 45.05 934.13 48.63 931.27 52.28 C 927.50 57.01 923.62 61.69 919.05 65.68 C 921.71 61.21 925.10 57.27 928.24 53.14 Z" />
<path fill="#000000" opacity="1.00" d=" M 785.91 94.23 C 789.94 88.56 795.31 83.79 801.31 80.31 C 799.17 85.20 795.04 88.78 790.98 92.07 C 789.54 93.30 787.71 93.82 785.91 94.23 Z" />
<path fill="#000000" opacity="1.00" d=" M 510.76 85.42 C 514.19 82.75 518.97 83.12 523.10 82.46 C 522.80 82.80 522.21 83.47 521.91 83.80 C 518.31 84.93 514.51 85.25 510.76 85.42 Z" />
<path fill="#000000" opacity="1.00" d=" M 499.05 91.19 C 503.48 89.72 508.24 90.23 512.82 89.68 C 512.72 90.25 512.52 91.40 512.41 91.97 C 507.09 93.05 501.69 93.67 496.30 94.28 C 497.01 93.12 497.58 91.58 499.05 91.19 Z" />
<path fill="#000000" opacity="1.00" d=" M 501.00 98.68 C 506.98 97.80 512.74 94.78 518.89 95.83 C 524.84 96.65 530.79 97.54 536.73 98.45 C 535.56 100.32 534.38 102.18 533.21 104.05 C 535.56 104.88 537.92 105.71 540.27 106.57 C 530.15 106.63 520.02 106.76 509.92 107.58 C 504.93 107.77 499.94 108.49 494.94 108.17 C 494.43 106.83 493.99 105.47 493.62 104.09 C 492.12 105.18 490.79 106.47 489.62 107.90 C 485.34 108.66 481.03 109.23 476.71 109.60 C 483.71 103.96 492.14 100.16 501.00 98.68 Z" />
<path fill="#000000" opacity="1.00" d=" M 764.71 111.29 C 767.31 108.04 770.59 105.30 774.43 103.63 C 771.98 107.04 768.51 109.57 764.71 111.29 Z" />
<path fill="#000000" opacity="1.00" d=" M 454.33 110.62 C 458.57 110.15 463.04 108.97 467.18 110.61 C 466.41 111.65 465.56 112.62 464.64 113.52 C 460.16 114.49 455.55 114.71 451.02 115.28 C 451.86 113.62 451.97 110.83 454.33 110.62 Z" />
<path fill="#000000" opacity="1.00" d=" M 798.54 124.72 C 801.95 120.28 805.47 115.78 809.89 112.28 C 810.35 112.73 811.28 113.63 811.74 114.07 C 808.35 118.68 803.37 121.81 798.54 124.72 Z" />
<path fill="#000000" opacity="1.00" d=" M 417.11 123.66 C 425.85 117.49 436.60 115.12 447.13 114.60 C 437.17 117.77 427.12 120.66 417.11 123.66 Z" />
<path fill="#000000" opacity="1.00" d=" M 496.36 115.99 C 506.00 115.02 515.71 114.40 525.38 115.33 C 518.30 122.51 507.61 119.90 498.63 120.87 C 497.80 119.51 497.00 118.13 496.21 116.74 C 496.25 116.55 496.32 116.18 496.36 115.99 Z" />
<path fill="#000000" opacity="1.00" d=" M 476.76 119.25 C 482.45 118.26 488.14 117.03 493.92 116.70 L 494.14 117.17 C 493.55 119.30 490.66 119.26 489.02 120.25 C 489.44 120.85 490.27 122.06 490.69 122.66 C 486.03 121.58 481.37 120.51 476.76 119.25 Z" />
<path fill="#000000" opacity="1.00" d=" M 470.11 128.20 C 477.09 126.92 484.20 125.40 491.32 126.42 C 478.85 128.87 466.50 131.88 454.08 134.58 C 448.72 135.68 443.43 137.27 437.96 137.78 C 448.54 134.17 459.06 130.16 470.11 128.20 Z" />
<path fill="#000000" opacity="1.00" d=" M 483.07 134.70 C 486.33 134.58 489.82 132.95 492.95 134.49 C 486.49 135.80 479.89 136.50 473.32 136.88 C 476.05 134.71 479.83 135.36 483.07 134.70 Z" />
<path fill="#000000" opacity="1.00" d=" M 723.15 150.07 C 728.77 144.96 733.89 139.03 740.58 135.28 C 739.40 138.64 736.32 140.57 733.68 142.67 C 730.31 145.33 726.85 147.90 723.15 150.07 Z" />
<path fill="#000000" opacity="1.00" d=" M 342.17 157.21 C 345.30 155.06 348.98 153.94 352.77 153.76 C 338.45 163.37 323.37 171.98 310.13 183.12 C 305.39 187.49 300.98 192.20 296.74 197.05 C 289.90 204.43 282.88 211.63 275.97 218.94 C 272.68 222.32 269.67 226.11 265.48 228.44 C 266.88 225.92 268.58 223.57 269.87 220.98 C 263.69 224.50 260.60 231.64 254.77 235.69 C 255.60 233.14 257.15 230.91 259.01 229.01 C 271.00 216.04 282.70 202.71 296.05 191.10 C 301.34 185.99 306.28 180.46 312.45 176.35 C 322.21 169.75 332.30 163.65 342.17 157.21 Z" />
<path fill="#000000" opacity="1.00" d=" M 806.66 161.22 C 809.38 158.21 812.77 155.91 816.27 153.90 C 813.60 156.97 810.21 159.30 806.66 161.22 Z" />
<path fill="#000000" opacity="1.00" d=" M 690.29 171.10 C 690.34 170.60 690.44 169.60 690.50 169.10 C 694.31 171.79 698.92 173.67 701.73 177.55 C 697.32 176.83 693.74 173.73 690.29 171.10 Z" />
<path fill="#000000" opacity="1.00" d=" M 261.83 201.13 C 265.37 197.41 267.52 192.34 271.90 189.49 C 269.02 194.61 266.87 200.08 264.39 205.39 C 262.33 209.84 258.49 213.10 254.12 215.15 C 254.19 213.48 254.28 211.81 254.36 210.14 C 252.77 209.74 251.18 209.34 249.59 208.93 C 253.06 204.21 256.44 199.44 260.13 194.89 C 261.03 196.87 261.48 199.00 261.83 201.13 Z" />
<path fill="#000000" opacity="1.00" d=" M 319.72 195.98 C 322.38 193.71 325.24 191.68 328.24 189.87 C 327.22 191.90 326.37 194.12 324.70 195.73 C 323.29 196.94 321.33 196.00 319.72 195.98 Z" />
<path fill="#000000" opacity="1.00" d=" M 309.03 206.01 C 311.84 202.87 315.08 200.14 318.13 197.22 C 315.45 201.17 312.71 205.11 309.55 208.69 C 307.33 209.93 307.92 206.84 309.03 206.01 Z" />
<path fill="#000000" opacity="1.00" d=" M 767.70 204.23 C 768.97 201.71 770.89 199.60 773.19 197.98 C 772.12 200.64 769.99 202.61 767.70 204.23 Z" />
<path fill="#000000" opacity="1.00" d=" M 401.53 220.20 C 403.92 218.63 406.14 216.72 408.84 215.70 L 409.54 217.18 C 405.61 220.12 401.44 222.85 396.92 224.78 C 397.60 222.51 397.76 219.90 399.25 217.96 C 399.82 218.52 400.96 219.64 401.53 220.20 Z" />
<path fill="#000000" opacity="1.00" d=" M 273.06 241.77 C 278.00 236.28 282.27 230.13 287.68 225.10 L 288.50 226.16 C 284.31 232.07 279.16 237.26 274.70 242.98 C 274.29 242.68 273.47 242.07 273.06 241.77 Z" />
<path fill="#000000" opacity="1.00" d=" M 234.81 266.36 C 238.98 259.56 243.24 252.76 248.18 246.50 C 249.17 248.98 246.97 250.88 245.83 252.82 C 242.66 257.11 240.14 261.87 236.73 265.97 C 236.25 266.07 235.29 266.26 234.81 266.36 Z" />
<path fill="#000000" opacity="1.00" d=" M 615.35 248.96 C 616.75 248.50 617.17 248.98 616.61 250.40 C 615.21 250.86 614.79 250.37 615.35 248.96 Z" />
<path fill="#000000" opacity="1.00" d=" M 269.57 268.39 C 270.87 267.09 272.66 266.45 274.27 265.62 C 272.32 268.96 270.09 272.13 267.56 275.06 C 267.97 272.79 267.97 270.22 269.57 268.39 Z" />
<path fill="#000000" opacity="1.00" d=" M 553.19 301.90 C 554.03 296.98 556.96 292.38 561.83 290.65 C 561.49 291.22 560.83 292.36 560.50 292.93 C 561.36 292.98 563.08 293.10 563.94 293.16 C 561.52 297.23 558.42 301.64 553.19 301.90 Z" />
<path fill="#000000" opacity="1.00" d=" M 564.68 306.26 C 567.85 300.53 573.74 297.47 578.39 293.18 C 577.99 294.68 577.63 296.34 576.34 297.37 C 572.66 300.59 568.80 303.62 564.68 306.26 Z" />
<path fill="#000000" opacity="1.00" d=" M 223.19 309.82 C 224.45 305.29 227.02 301.05 230.13 297.54 C 228.69 301.72 226.77 305.74 224.49 309.52 C 224.17 309.59 223.51 309.74 223.19 309.82 Z" />
<path fill="#000000" opacity="1.00" d=" M 234.22 315.68 C 236.53 311.67 237.81 306.91 241.35 303.73 C 240.90 308.43 237.77 312.19 235.88 316.37 C 235.47 316.20 234.63 315.85 234.22 315.68 Z" />
<path fill="#000000" opacity="1.00" d=" M 532.67 325.04 C 533.73 322.98 535.25 321.17 537.51 320.39 C 537.16 322.99 535.51 325.19 532.67 325.04 Z" />
<path fill="#000000" opacity="1.00" d=" M 512.00 337.05 C 517.39 332.97 523.47 329.00 530.45 328.73 C 524.16 336.26 516.94 343.03 509.57 349.50 C 507.24 351.26 506.27 347.86 506.04 346.08 C 505.91 342.13 509.26 339.38 512.00 337.05 Z" />
<path fill="#000000" opacity="1.00" d=" M 700.51 380.71 C 702.08 382.74 702.22 385.39 702.69 387.83 C 703.69 394.57 705.69 401.10 707.38 407.70 C 709.06 407.86 710.74 408.03 712.44 408.21 C 711.14 411.24 710.07 414.52 707.63 416.87 C 710.37 429.10 712.45 441.53 712.81 454.07 C 712.01 463.34 711.56 472.63 711.12 481.93 C 710.96 485.95 711.15 490.05 710.10 493.98 C 706.81 508.62 704.31 523.44 700.21 537.89 C 696.63 549.11 691.63 559.81 686.35 570.32 C 683.14 576.66 680.33 583.26 676.13 589.04 C 668.58 599.52 661.74 610.49 654.12 620.92 C 653.11 620.06 652.11 619.20 651.11 618.35 C 649.22 620.40 647.31 622.43 645.15 624.19 C 651.35 613.68 660.36 605.21 666.85 594.91 C 677.46 579.42 685.76 562.50 693.41 545.39 C 697.26 537.17 699.58 528.35 701.32 519.46 C 707.56 493.16 710.41 465.87 707.86 438.88 C 706.36 424.85 704.22 410.88 702.14 396.92 C 701.40 391.54 700.12 386.18 700.51 380.71 Z" />
<path fill="#000000" opacity="1.00" d=" M 716.20 415.47 C 715.59 413.77 717.43 413.67 718.55 413.18 C 719.52 425.75 720.42 438.34 721.23 450.93 C 720.66 450.78 719.53 450.49 718.96 450.35 C 717.80 438.75 717.13 427.09 716.20 415.47 Z" />
<path fill="#000000" opacity="1.00" d=" M 635.52 635.52 C 639.46 632.25 643.17 628.71 647.25 625.62 C 647.29 626.11 647.38 627.10 647.42 627.59 C 645.12 630.27 642.18 632.30 639.61 634.69 C 636.74 637.09 634.22 640.08 630.64 641.43 C 631.23 638.74 633.59 637.20 635.52 635.52 Z" />
<path fill="#000000" opacity="1.00" d=" M 620.58 654.09 C 622.45 648.10 628.94 645.61 634.40 643.92 C 630.94 648.54 625.20 650.79 620.58 654.09 Z" />
<path fill="#000000" opacity="1.00" d=" M 596.62 672.29 C 599.97 668.83 603.98 666.02 608.21 663.74 C 607.93 665.06 607.27 666.26 606.07 666.95 C 603.07 668.96 600.20 671.41 596.62 672.29 Z" />
<path fill="#000000" opacity="1.00" d=" M 586.44 682.32 C 591.10 679.38 595.51 676.05 600.29 673.31 C 600.30 673.92 600.31 675.14 600.32 675.75 C 596.92 678.27 593.18 680.28 589.71 682.69 C 587.54 684.02 585.48 685.84 582.83 686.03 C 583.23 684.16 585.03 683.32 586.44 682.32 Z" />
<path fill="#000000" opacity="1.00" d=" M 535.83 746.78 C 539.62 745.30 543.46 743.90 547.42 742.91 C 547.08 744.11 546.35 744.93 545.22 745.36 C 541.43 746.92 537.57 748.34 533.61 749.43 C 533.84 748.05 534.58 747.17 535.83 746.78 Z" />
<path fill="#000000" opacity="1.00" d=" M 59.78 918.96 C 62.76 915.46 65.97 912.03 70.01 909.76 C 68.24 914.29 63.66 916.53 59.78 918.96 Z" />
<path fill="#000000" opacity="1.00" d=" M 0.00 934.79 C 6.40 928.79 13.39 923.28 20.95 918.80 C 14.87 924.89 8.05 930.25 0.87 934.99 L 2.02 935.00 L 0.00 935.00 L 0.00 934.79 Z" />
</g>
</svg>
