<?xml version="1.0" encoding="UTF-8" ?>
<!DOCTYPE svg PUBLIC "-//W3C//DTD SVG 1.1//EN" "http://www.w3.org/Graphics/SVG/1.1/DTD/svg11.dtd">
<svg width="600pt" height="1000pt" viewBox="0 0 600 1000" version="1.1" xmlns="http://www.w3.org/2000/svg">
<g id="#000000ff">
<path fill="#000000" opacity="1.00" d=" M 511.31 209.36 C 514.16 205.99 516.81 202.41 520.25 199.61 C 516.61 207.28 511.84 214.86 504.70 219.71 C 501.03 223.00 498.07 227.00 494.14 230.01 C 490.95 236.56 483.30 239.07 480.26 245.71 C 479.78 245.35 478.83 244.62 478.35 244.26 C 471.53 250.46 464.66 256.61 457.74 262.69 C 456.53 263.74 455.56 265.02 454.80 266.42 C 454.28 265.60 453.79 264.76 453.30 263.93 C 450.46 266.48 447.64 269.10 445.49 272.28 C 446.15 272.83 446.80 273.38 447.45 273.95 C 444.47 275.92 442.00 278.54 439.84 281.36 C 444.62 278.48 448.55 274.43 452.68 270.73 C 460.96 263.06 468.98 255.12 477.32 247.51 C 477.56 247.86 478.03 248.56 478.26 248.91 C 481.73 246.10 485.20 243.29 488.49 240.27 C 488.48 240.77 488.46 241.75 488.45 242.25 C 490.64 241.08 492.99 239.90 494.15 237.55 C 494.70 238.33 495.24 239.13 495.79 239.92 C 498.16 237.30 501.03 235.22 503.69 232.90 C 506.56 229.76 509.47 226.61 512.98 224.16 C 510.93 229.12 506.20 232.18 503.77 236.90 C 502.44 239.29 500.65 241.37 498.71 243.28 L 499.48 239.68 C 497.29 241.74 494.63 243.54 493.25 246.28 L 493.77 247.81 C 487.93 254.39 480.39 259.51 475.65 267.01 C 483.18 263.11 488.51 256.29 494.68 250.67 C 498.47 247.39 500.66 242.67 504.74 239.68 C 511.42 234.34 515.99 226.92 522.25 221.16 C 521.83 225.81 518.21 228.99 516.09 232.86 C 518.45 230.82 520.34 228.32 522.57 226.14 C 521.80 229.61 520.17 232.79 519.23 236.21 C 521.78 234.12 523.85 231.53 525.98 229.02 C 524.90 231.15 523.77 233.26 522.76 235.42 C 526.73 232.51 529.98 228.76 533.97 225.86 C 530.96 229.85 527.35 233.31 523.95 236.95 C 520.62 240.33 518.14 244.41 515.21 248.12 C 514.35 253.90 509.12 257.44 505.98 261.99 C 502.18 267.49 497.44 272.29 494.05 278.07 C 490.15 282.42 488.44 288.25 484.24 292.41 C 481.53 294.97 481.53 299.18 478.65 301.57 C 472.86 307.15 466.67 312.33 461.10 318.12 C 459.18 324.14 453.63 327.56 449.11 331.50 C 453.42 340.72 458.98 349.45 461.45 359.43 C 465.99 373.90 469.24 388.79 470.69 403.90 C 470.86 411.63 471.66 419.31 472.35 427.00 C 472.09 436.47 470.76 445.98 467.88 455.03 C 466.14 461.09 465.05 467.32 463.63 473.47 C 462.94 475.72 464.60 478.10 463.28 480.26 C 460.27 486.24 458.84 493.17 454.21 498.20 C 454.36 499.43 454.44 500.67 454.45 501.92 C 447.60 515.99 438.32 528.86 427.34 539.99 C 427.43 540.42 427.62 541.29 427.72 541.72 C 424.74 545.06 421.00 547.65 418.15 551.12 C 416.86 553.40 413.33 551.89 412.19 554.22 C 409.81 558.93 404.59 560.94 400.16 563.23 C 398.01 563.99 398.08 567.08 395.83 567.65 C 393.15 568.42 391.03 570.15 389.10 572.08 C 385.78 574.10 381.64 574.20 378.26 576.15 C 372.75 579.65 366.34 581.20 360.23 583.33 C 354.15 584.64 348.13 586.65 341.85 586.79 C 359.71 581.19 378.20 575.58 393.21 563.96 C 391.67 564.41 390.15 564.92 388.64 565.43 C 384.20 564.01 382.92 569.82 378.95 570.22 C 370.88 572.68 363.86 577.80 355.70 579.97 C 360.64 575.92 367.02 574.12 372.00 570.08 C 375.26 567.26 379.69 566.66 383.17 564.23 C 390.58 558.96 398.17 553.72 404.11 546.76 C 402.61 547.39 401.22 548.25 399.96 549.29 C 399.53 548.90 399.11 548.51 398.70 548.12 C 402.97 545.77 406.22 542.05 409.84 538.86 C 417.82 531.54 424.91 523.27 430.89 514.24 C 430.52 514.20 429.78 514.13 429.41 514.10 C 425.77 518.90 422.43 523.94 418.50 528.52 C 414.31 532.70 409.27 535.90 404.77 539.71 C 402.48 541.98 400.04 545.97 396.36 545.34 C 397.97 543.84 399.65 542.43 401.17 540.84 C 400.08 541.14 399.06 541.60 398.12 542.22 C 385.67 552.07 372.37 561.25 357.57 567.16 C 361.90 563.77 367.06 561.69 371.68 558.75 C 375.63 556.14 380.40 554.32 382.99 550.11 C 373.49 554.62 364.57 560.51 354.50 563.75 C 356.91 561.92 359.58 560.51 362.08 558.81 C 357.75 559.08 354.24 561.85 350.31 563.36 C 345.17 565.36 340.08 567.60 334.70 568.85 C 338.42 565.98 342.98 564.56 347.13 562.46 C 346.54 562.31 345.34 562.00 344.74 561.85 C 349.20 558.95 353.24 555.44 358.01 553.03 C 364.05 549.90 369.52 545.86 374.99 541.87 C 378.32 539.34 382.32 537.34 384.39 533.51 C 380.87 534.60 378.29 537.27 375.56 539.57 C 369.62 544.16 362.46 546.67 355.59 549.48 C 352.36 550.62 348.88 550.69 345.52 551.06 C 349.13 548.43 353.22 546.56 357.01 544.20 C 361.56 541.43 365.53 537.84 369.91 534.82 C 373.45 532.21 377.30 529.96 380.34 526.74 C 367.59 533.04 356.22 542.04 342.84 547.12 C 345.87 544.65 348.98 542.29 352.37 540.34 C 357.56 537.33 362.18 533.48 367.02 529.95 C 368.40 529.03 369.16 527.55 369.85 526.11 C 366.76 527.92 364.11 530.47 360.73 531.78 C 357.83 532.99 354.48 533.25 351.98 535.30 C 349.20 537.41 346.61 539.74 343.83 541.83 C 344.53 540.54 345.26 539.27 345.99 538.01 C 342.94 539.63 339.89 541.36 336.52 542.25 C 340.66 538.97 345.62 536.94 349.91 533.86 C 356.07 529.50 362.50 525.23 367.42 519.46 C 365.15 520.53 363.03 521.86 360.81 523.01 C 364.28 519.56 369.20 517.34 371.81 513.21 C 369.91 512.88 368.44 514.68 366.75 515.26 C 368.13 513.16 370.46 510.55 373.26 511.57 C 374.54 511.16 375.54 510.24 376.51 509.35 C 386.17 500.22 394.63 489.79 401.14 478.19 C 406.25 469.08 410.91 459.49 412.78 449.12 C 414.47 439.83 416.51 430.50 416.33 421.00 C 416.17 411.31 416.37 401.53 414.65 391.96 C 413.37 383.60 410.44 375.67 407.70 367.72 C 405.96 369.16 404.23 370.61 402.51 372.07 C 403.55 375.16 404.78 378.19 405.54 381.37 C 403.60 378.88 402.84 375.77 401.83 372.85 C 394.67 378.97 387.50 385.10 380.57 391.49 C 377.63 395.36 373.03 397.13 368.98 399.54 C 372.70 394.55 377.34 390.36 381.71 385.97 C 376.19 389.68 370.32 392.92 365.32 397.37 C 357.16 404.45 348.84 411.50 341.93 419.85 C 346.21 418.87 349.62 416.00 353.66 414.44 C 353.30 417.30 351.23 419.32 349.23 421.18 C 316.43 452.59 282.92 483.24 249.28 513.74 C 251.52 514.45 253.75 515.19 255.99 515.93 C 255.38 514.66 254.77 513.40 254.17 512.14 C 256.83 513.57 259.45 515.07 262.10 516.52 C 265.68 515.43 269.45 516.57 272.43 518.67 C 277.10 521.91 281.48 525.72 284.72 530.43 C 286.95 533.53 288.04 537.41 291.05 539.94 C 292.54 544.31 292.47 549.41 290.62 553.71 C 289.08 557.82 285.70 560.81 283.65 564.63 C 280.49 568.71 276.00 571.91 270.95 573.15 C 268.19 573.98 265.24 572.74 262.52 573.70 C 256.22 576.76 248.76 577.13 242.00 575.68 C 228.86 571.28 218.44 561.78 206.99 554.38 C 205.07 555.98 203.17 557.61 201.61 559.57 C 195.41 567.66 187.54 574.22 180.36 581.40 C 168.98 592.05 157.67 602.87 145.02 612.03 C 138.49 617.51 130.55 620.80 123.47 625.46 C 115.93 629.43 108.69 633.96 101.16 637.95 C 105.96 634.04 111.45 631.12 116.35 627.36 C 118.97 625.61 119.45 622.27 120.83 619.65 C 119.35 620.05 117.98 620.70 117.17 622.06 C 115.25 624.86 111.98 626.12 109.03 627.51 C 109.74 626.61 111.18 624.80 111.90 623.90 C 106.88 626.09 102.60 629.56 97.90 632.32 C 98.89 630.78 99.93 629.27 100.94 627.75 C 93.20 632.72 86.26 638.81 78.68 644.01 C 78.66 642.97 78.63 640.90 78.62 639.86 C 83.44 636.76 89.11 632.67 89.51 626.44 C 87.08 627.65 84.66 628.90 82.34 630.32 C 81.69 630.43 80.37 630.64 79.72 630.75 C 82.23 627.71 84.90 624.79 87.19 621.57 C 84.86 622.83 82.61 624.20 80.30 625.51 C 81.00 624.59 82.40 622.77 83.10 621.86 C 82.25 622.16 80.57 622.76 79.73 623.06 C 81.44 621.08 83.12 619.09 84.61 616.95 C 83.35 617.40 82.09 617.85 80.82 618.29 C 83.33 614.34 87.01 611.26 89.15 607.06 C 87.11 608.18 85.13 609.41 83.13 610.61 C 83.78 609.25 84.42 607.90 85.06 606.55 C 81.78 608.24 79.09 610.79 76.12 612.92 C 78.86 608.18 82.89 604.28 85.22 599.28 C 86.07 597.44 87.67 595.08 86.09 593.17 C 84.17 594.06 82.70 595.65 81.07 596.97 C 87.47 586.85 94.05 576.80 101.69 567.57 C 103.45 565.85 103.02 563.50 102.17 561.46 C 96.30 565.35 91.74 570.85 85.94 574.83 C 94.09 561.45 105.93 551.00 117.48 540.64 C 129.07 530.20 140.81 519.91 152.99 510.17 C 155.42 508.20 158.05 506.44 160.10 504.06 C 150.43 489.60 143.90 473.31 138.73 456.77 C 139.39 457.09 140.72 457.75 141.38 458.07 C 139.58 454.18 137.23 450.40 136.99 446.00 C 135.83 435.80 135.29 425.47 135.97 415.21 C 137.59 418.21 137.28 421.73 137.57 425.02 C 137.73 429.91 138.53 434.75 139.02 439.61 C 139.48 438.98 139.94 438.36 140.39 437.73 C 139.26 428.19 139.96 418.56 140.01 408.98 C 140.13 400.21 140.56 391.20 143.82 382.95 C 145.06 379.54 145.43 375.88 146.68 372.48 C 147.80 369.61 150.44 367.29 150.53 364.07 C 150.19 357.84 153.89 352.50 155.81 346.80 C 157.91 342.36 158.88 337.32 161.82 333.31 C 162.22 339.45 156.18 343.82 156.80 349.81 C 160.67 344.18 162.07 337.26 165.94 331.63 C 166.31 338.40 160.01 343.89 162.22 350.73 C 164.59 348.05 165.64 344.55 167.70 341.67 C 167.19 344.22 166.50 346.72 165.94 349.27 C 168.24 346.86 170.40 344.31 172.77 341.95 C 169.24 356.07 161.08 369.10 160.90 383.99 C 164.96 375.90 166.75 366.90 170.48 358.66 C 170.82 359.45 171.20 360.22 171.62 360.98 C 172.59 358.01 173.75 355.04 175.68 352.55 C 175.10 358.86 172.75 364.80 171.39 370.95 C 173.84 366.34 175.51 361.38 177.65 356.63 C 177.82 357.30 178.16 358.64 178.33 359.32 C 182.52 351.30 186.65 343.24 191.77 335.76 C 192.67 334.51 193.79 333.46 195.11 332.63 C 191.80 341.61 183.99 348.44 182.22 358.08 C 183.00 362.79 180.15 366.94 179.87 371.55 C 181.66 368.60 182.89 365.27 183.47 361.88 C 183.29 361.42 182.93 360.51 182.75 360.05 C 185.74 358.42 186.68 354.98 188.28 352.23 C 191.49 346.32 194.16 340.15 197.26 334.19 C 201.05 328.56 206.00 323.74 209.39 317.81 C 207.36 319.37 205.57 321.21 203.82 323.07 C 203.06 322.66 202.38 321.34 203.86 320.93 C 206.05 318.35 208.16 315.71 210.20 313.00 C 210.62 313.24 211.46 313.70 211.88 313.94 C 217.73 308.71 223.32 303.18 229.47 298.30 C 234.91 293.89 241.78 292.02 248.09 289.25 C 258.08 284.99 268.43 281.51 278.03 276.39 C 277.42 276.14 276.22 275.63 275.62 275.38 C 277.33 274.85 279.05 274.31 280.76 273.76 C 281.11 272.84 281.47 271.92 281.83 271.01 C 287.01 270.90 291.73 268.35 296.91 268.28 C 308.83 267.83 320.99 267.36 332.61 270.61 C 340.36 272.93 348.57 273.63 355.99 276.98 C 363.32 280.22 370.70 283.39 377.77 287.18 C 382.81 289.85 387.49 293.12 392.43 295.97 C 394.34 294.12 396.35 292.37 398.40 290.67 C 391.35 284.83 381.43 282.62 376.06 274.82 C 380.21 277.12 384.02 280.04 388.65 281.40 C 394.49 284.36 400.30 287.45 405.95 290.76 C 406.98 289.37 409.33 288.19 408.13 286.21 C 409.61 287.11 410.63 285.63 411.68 284.81 C 419.28 277.77 426.50 270.26 434.57 263.74 C 441.25 259.56 446.42 253.51 452.30 248.34 C 455.52 245.62 458.27 241.43 462.97 241.46 C 460.35 246.20 455.67 249.24 452.05 253.14 C 439.14 265.22 427.05 278.11 414.92 290.96 C 415.63 291.25 417.06 291.82 417.77 292.11 C 424.16 286.05 429.78 279.11 437.00 273.98 C 441.82 270.38 445.74 265.74 450.50 262.06 C 450.86 262.45 451.58 263.24 451.95 263.63 C 454.28 261.61 456.96 260.06 459.76 258.78 C 458.92 258.04 458.11 257.29 457.32 256.51 C 455.86 257.63 454.39 258.73 452.87 259.77 C 454.50 257.34 456.47 255.16 458.72 253.30 C 458.37 255.11 459.72 256.40 460.48 257.83 C 462.55 255.79 464.70 253.72 466.00 251.08 C 464.61 250.82 463.22 250.61 461.84 250.44 C 463.96 248.54 466.65 244.04 469.81 246.72 C 471.02 245.10 472.21 243.46 473.37 241.80 C 472.75 241.76 471.51 241.69 470.89 241.65 C 472.95 238.74 476.14 237.11 478.82 234.89 C 481.74 231.41 485.18 228.42 488.91 225.82 C 490.02 224.86 491.46 224.54 492.90 224.40 C 496.95 219.94 500.83 215.19 505.88 211.79 C 505.22 214.01 504.31 216.13 503.37 218.24 C 506.85 216.11 508.72 212.37 511.31 209.36 M 479.58 258.16 C 482.83 256.34 486.21 254.03 487.46 250.32 C 484.19 252.17 481.34 254.81 479.58 258.16 M 481.11 252.16 C 474.61 257.24 468.83 263.17 462.73 268.71 C 456.65 274.63 450.21 280.20 444.55 286.54 L 447.54 286.14 C 443.51 290.17 439.35 294.07 435.42 298.20 C 435.87 298.82 436.76 300.05 437.21 300.67 C 443.69 295.05 450.21 289.31 455.53 282.54 C 459.61 276.03 467.63 273.36 471.35 266.54 L 469.58 265.39 C 473.08 260.67 477.65 256.89 481.11 252.16 M 439.11 275.15 C 442.59 273.56 445.36 270.66 447.03 267.23 C 443.73 269.13 441.11 271.96 439.11 275.15 M 309.64 276.57 C 313.66 277.87 317.95 277.47 322.08 278.12 C 327.11 278.31 330.79 282.75 335.91 282.54 C 342.88 282.56 349.35 285.26 356.00 286.97 C 362.82 288.71 368.23 293.41 374.32 296.68 C 378.63 298.97 382.56 301.91 386.91 304.10 C 387.17 303.71 387.67 302.91 387.93 302.51 C 381.10 296.43 373.81 290.20 365.01 287.32 C 359.07 287.86 354.32 283.82 348.94 282.08 C 336.33 277.95 323.02 274.11 309.64 276.57 M 245.00 297.96 C 240.52 300.23 236.44 303.31 233.24 307.20 C 228.03 313.62 221.83 319.15 216.65 325.59 C 213.74 329.20 210.48 332.52 207.59 336.15 C 207.53 337.20 208.06 338.42 207.33 339.35 C 204.66 343.59 201.34 347.56 199.99 352.49 C 203.89 348.69 206.12 343.56 209.20 339.13 C 214.72 328.33 223.41 319.64 232.32 311.61 C 232.58 312.15 233.12 313.24 233.38 313.79 C 234.41 312.44 235.44 311.10 236.55 309.81 C 235.59 314.47 231.97 317.68 229.38 321.42 C 232.62 320.24 234.30 316.54 238.14 316.48 C 235.88 320.14 232.18 322.83 230.98 327.12 C 227.42 327.61 225.23 330.28 224.58 333.69 C 223.99 333.80 222.81 334.04 222.22 334.16 C 222.10 334.78 221.87 336.01 221.76 336.63 C 220.74 337.33 219.69 338.06 219.18 339.24 C 215.59 345.74 212.25 352.38 208.42 358.75 C 208.03 357.94 207.26 356.31 206.87 355.49 C 204.90 358.20 203.97 361.39 203.44 364.66 C 203.37 366.02 202.30 366.63 201.11 366.90 C 200.88 367.41 200.42 368.43 200.19 368.94 C 199.07 370.14 197.80 371.33 197.61 373.07 C 195.97 381.11 194.17 389.18 193.98 397.42 C 193.42 396.15 192.88 394.88 192.34 393.62 C 192.00 395.20 191.69 396.80 191.37 398.40 C 192.01 398.64 193.29 399.12 193.93 399.36 C 194.46 398.29 194.99 397.23 195.52 396.17 C 195.86 397.60 196.44 398.93 197.24 400.15 C 197.27 409.49 197.88 418.83 199.08 428.09 C 199.39 431.65 202.17 435.10 200.67 438.68 C 198.48 431.83 197.32 424.71 195.17 417.86 C 194.74 419.86 194.47 421.93 194.78 423.98 C 196.37 436.68 199.88 449.45 207.13 460.16 C 210.30 457.94 213.24 455.27 216.89 453.83 C 224.82 450.76 230.29 443.94 236.41 438.37 C 238.71 436.11 242.20 435.79 244.49 433.51 C 256.05 423.38 267.73 413.41 279.26 403.25 C 286.07 397.40 291.98 390.55 299.00 384.95 C 304.01 381.94 308.61 378.32 312.75 374.19 C 312.33 373.89 311.47 373.30 311.04 373.00 L 311.29 372.41 L 311.72 371.73 C 313.93 369.77 312.82 373.12 314.54 373.03 C 318.12 369.43 321.91 366.02 325.88 362.86 C 329.49 360.52 333.20 358.34 336.51 355.58 C 346.07 347.79 356.18 340.68 365.30 332.35 C 368.37 329.47 371.87 326.76 373.51 322.74 C 371.28 323.81 369.25 325.23 367.35 326.80 C 367.49 326.27 367.78 325.23 367.92 324.70 C 364.93 326.36 358.89 326.27 359.27 331.03 C 357.89 331.35 356.51 331.66 355.13 331.99 C 355.40 332.42 355.93 333.27 356.20 333.69 C 352.12 337.22 347.10 339.27 342.54 342.06 C 343.04 342.49 343.54 342.92 344.06 343.36 C 344.69 342.88 345.95 341.92 346.58 341.44 C 344.94 343.95 342.51 345.85 339.81 347.11 C 340.45 346.56 341.72 345.48 342.36 344.93 C 341.89 344.48 341.43 344.03 340.97 343.59 C 340.32 343.96 339.04 344.69 338.40 345.05 C 344.53 337.61 352.67 332.18 359.85 325.82 C 363.72 322.94 366.28 318.48 370.84 316.54 C 367.33 313.91 363.93 311.08 360.03 309.01 C 350.78 303.91 340.24 302.03 329.99 300.03 C 319.72 298.00 309.28 299.68 299.05 300.99 C 285.20 302.49 272.92 309.57 260.69 315.69 C 257.79 317.15 254.38 317.70 251.98 320.04 C 250.16 321.29 248.68 323.67 246.21 323.40 L 247.71 321.25 C 247.02 321.21 245.65 321.13 244.96 321.09 C 247.62 318.96 250.50 317.11 253.33 315.20 C 253.71 315.50 254.49 316.09 254.88 316.39 C 265.84 310.53 276.55 304.21 287.67 298.65 C 292.96 295.88 299.60 296.71 304.54 293.40 C 297.53 293.16 290.74 295.20 284.08 297.10 C 280.81 298.94 277.10 299.67 273.36 299.39 C 274.17 297.20 275.19 295.11 276.26 293.04 C 272.62 294.58 268.92 295.98 265.07 296.89 C 261.02 297.65 258.45 301.37 254.48 302.37 C 257.17 299.20 261.27 297.96 264.54 295.56 C 266.34 294.33 267.90 292.59 270.10 292.09 C 274.62 290.87 279.06 289.31 283.13 286.96 C 280.21 286.76 277.45 287.70 274.78 288.75 C 275.33 288.06 276.44 286.70 276.99 286.02 C 275.49 286.50 273.96 286.88 272.43 287.26 C 274.83 284.99 278.01 283.84 280.58 281.80 C 267.55 284.09 256.51 291.93 245.00 297.96 M 427.92 287.17 C 427.55 288.97 426.88 290.68 426.19 292.39 C 429.37 289.20 432.48 285.90 435.08 282.22 C 432.52 283.60 430.12 285.27 427.92 287.17 M 250.57 292.11 C 255.63 289.75 260.95 287.56 265.28 283.98 C 259.88 285.46 254.44 287.95 250.57 292.11 M 392.87 297.31 C 393.54 297.15 394.88 296.84 395.55 296.69 C 397.30 295.27 401.24 293.74 399.12 290.98 C 396.94 292.99 394.78 295.03 392.87 297.31 M 399.07 296.75 C 400.45 297.06 401.01 296.51 400.75 295.12 C 399.38 294.83 398.82 295.37 399.07 296.75 M 397.41 298.05 C 397.97 298.62 397.97 298.62 397.41 298.05 M 388.37 304.08 C 387.48 305.37 389.67 306.95 390.69 305.81 C 391.56 304.50 389.37 302.91 388.37 304.08 M 193.56 357.59 C 197.44 353.45 200.67 348.30 202.12 342.77 C 198.83 347.42 195.93 352.40 193.56 357.59 M 212.56 345.79 C 212.05 346.31 211.90 348.53 213.17 347.61 C 214.11 346.48 215.46 344.87 215.03 343.33 C 213.71 343.13 213.10 344.87 212.56 345.79 M 165.61 349.20 C 164.53 352.40 163.65 355.66 163.06 358.99 C 164.17 356.79 165.45 354.68 166.62 352.52 C 166.38 351.38 165.96 350.30 165.61 349.20 M 167.29 384.39 C 169.24 382.79 169.44 380.14 169.81 377.83 C 168.51 379.81 167.75 382.07 167.29 384.39 M 139.42 439.66 C 139.84 444.78 140.79 449.85 142.13 454.81 C 143.58 461.71 147.45 467.70 149.83 474.28 C 149.68 468.62 147.25 463.38 146.01 457.93 C 144.63 451.93 141.48 446.33 141.20 440.11 C 140.75 440.00 139.86 439.77 139.42 439.66 M 198.44 447.61 C 199.11 450.52 199.74 453.77 202.19 455.79 C 201.54 452.83 200.33 449.99 198.44 447.61 M 189.39 459.67 C 189.78 463.89 190.95 468.03 192.70 471.89 C 194.13 471.60 194.99 470.26 196.08 469.40 C 192.81 466.92 190.96 463.35 189.39 459.67 M 395.67 513.21 C 398.28 510.85 400.47 508.03 402.16 504.94 C 399.46 507.22 397.34 510.11 395.67 513.21 M 373.19 523.05 C 376.88 520.35 380.22 516.98 382.27 512.84 C 378.32 515.30 375.68 519.24 373.19 523.05 M 388.01 520.23 C 390.63 518.71 392.99 516.64 394.37 513.90 C 391.89 515.61 389.68 517.71 388.01 520.23 M 385.71 521.17 C 384.60 521.90 382.42 522.93 382.88 524.52 C 384.18 524.92 385.18 523.50 386.03 522.74 C 386.88 522.31 387.14 520.26 385.71 521.17 Z" />
<path fill="#000000" opacity="1.00" d=" M 520.05 212.14 C 523.38 212.40 518.37 215.03 520.05 212.14 Z" />
<path fill="#000000" opacity="1.00" d=" M 475.53 223.71 C 477.03 220.27 479.88 217.69 482.71 215.35 C 482.13 217.90 480.06 219.58 478.67 221.67 C 476.68 224.48 475.49 227.76 473.47 230.54 C 471.33 232.98 468.59 234.86 465.65 236.21 C 468.84 231.96 473.23 228.60 475.53 223.71 Z" />
<path fill="#000000" opacity="1.00" d=" M 517.05 222.69 C 517.62 221.68 518.57 220.20 519.89 220.33 C 520.20 221.65 519.01 222.91 518.19 223.83 C 517.31 224.01 516.93 223.63 517.05 222.69 Z" />
<path fill="#000000" opacity="1.00" d=" M 514.82 225.20 C 515.68 225.00 516.07 225.38 515.99 226.34 C 515.43 227.35 514.48 228.87 513.18 228.74 C 512.93 227.41 514.00 226.15 514.82 225.20 Z" />
<path fill="#000000" opacity="1.00" d=" M 496.16 235.61 C 496.91 234.57 498.09 233.16 499.51 233.34 C 499.78 234.99 497.69 236.63 496.26 237.15 C 496.24 236.76 496.19 235.99 496.16 235.61 Z" />
<path fill="#000000" opacity="1.00" d=" M 446.72 245.12 C 448.56 242.11 451.32 239.84 454.32 238.05 C 452.63 241.16 449.98 243.71 446.72 245.12 Z" />
<path fill="#000000" opacity="1.00" d=" M 306.42 244.81 C 308.71 242.37 312.49 242.32 315.47 243.31 C 312.53 244.21 309.48 244.63 306.42 244.81 Z" />
<path fill="#000000" opacity="1.00" d=" M 297.63 251.98 C 302.58 247.93 309.01 246.80 315.11 245.64 C 318.81 245.32 322.47 246.42 326.14 246.83 C 325.69 247.77 325.26 248.71 324.83 249.65 C 325.45 249.89 326.70 250.37 327.32 250.61 C 320.48 250.73 313.66 251.48 306.83 251.51 C 306.31 251.10 305.29 250.26 304.77 249.84 C 304.46 250.28 303.83 251.15 303.51 251.58 C 301.55 251.74 299.59 251.89 297.63 251.98 Z" />
<path fill="#000000" opacity="1.00" d=" M 285.77 252.75 C 287.95 252.57 290.13 252.39 292.32 252.27 C 291.59 255.57 287.27 254.26 284.83 255.06 C 285.06 254.48 285.54 253.33 285.77 252.75 Z" />
<path fill="#000000" opacity="1.00" d=" M 268.87 258.70 C 273.00 255.84 278.06 255.10 282.93 254.53 C 278.35 256.24 273.65 257.63 268.87 258.70 Z" />
<path fill="#000000" opacity="1.00" d=" M 297.83 256.84 C 305.37 255.76 313.28 253.57 320.83 255.51 C 317.01 257.64 312.48 257.89 308.22 257.39 C 307.75 257.03 306.80 256.31 306.33 255.95 C 305.13 256.67 303.95 257.43 303.00 258.46 C 301.26 257.96 299.54 257.41 297.83 256.84 Z" />
<path fill="#000000" opacity="1.00" d=" M 278.95 265.74 C 287.06 262.75 295.51 259.92 304.28 260.23 C 295.88 262.26 287.44 264.17 278.95 265.74 Z" />
<path fill="#000000" opacity="1.00" d=" M 452.11 266.69 C 452.49 267.09 452.87 267.50 453.26 267.92 C 451.57 269.12 450.12 270.62 448.93 272.31 C 448.52 271.91 448.11 271.51 447.72 271.12 C 449.68 270.20 451.17 268.63 452.11 266.69 Z" />
<path fill="#000000" opacity="1.00" d=" M 227.30 278.30 C 230.33 276.39 233.26 274.06 236.93 273.56 C 228.86 279.61 219.42 284.04 212.71 291.77 C 207.14 297.95 201.28 303.86 195.57 309.92 C 195.65 309.17 195.80 307.69 195.88 306.95 C 193.93 309.13 192.03 311.40 189.74 313.25 C 192.02 309.20 195.60 306.13 198.64 302.68 C 202.91 297.96 207.62 293.66 212.24 289.28 C 216.59 284.78 222.10 281.69 227.30 278.30 Z" />
<path fill="#000000" opacity="1.00" d=" M 399.93 280.99 C 402.35 281.89 404.65 283.22 406.29 285.26 C 403.82 284.42 401.66 282.92 399.93 280.99 Z" />
<path fill="#000000" opacity="1.00" d=" M 193.33 296.44 C 194.85 294.50 196.37 292.56 198.07 290.77 C 196.01 295.19 194.65 300.42 190.25 303.15 C 189.56 301.90 188.76 300.72 187.86 299.62 C 189.39 297.49 190.99 295.42 192.71 293.44 C 192.87 294.19 193.18 295.69 193.33 296.44 Z" />
<path fill="#000000" opacity="1.00" d=" M 224.34 291.40 C 226.12 291.96 223.68 295.02 222.35 294.02 C 221.79 292.81 223.30 291.67 224.34 291.40 Z" />
<path fill="#000000" opacity="1.00" d=" M 219.94 295.20 C 218.73 297.20 217.53 299.39 215.26 300.34 C 216.52 298.37 218.18 296.72 219.94 295.20 Z" />
<path fill="#000000" opacity="1.00" d=" M 439.25 296.21 C 439.75 296.78 439.75 296.78 439.25 296.21 Z" />
<path fill="#000000" opacity="1.00" d=" M 259.06 305.60 C 261.12 305.04 263.17 304.40 265.24 303.86 C 263.24 305.35 261.13 306.68 259.03 308.02 C 259.04 307.41 259.05 306.20 259.06 305.60 Z" />
<path fill="#000000" opacity="1.00" d=" M 198.76 317.15 C 200.38 313.43 203.33 310.49 206.33 307.85 C 204.44 311.40 201.65 314.39 198.76 317.15 Z" />
<path fill="#000000" opacity="1.00" d=" M 180.26 327.72 C 182.54 324.62 184.25 321.04 187.20 318.49 C 185.60 321.77 183.35 324.68 181.41 327.76 C 181.12 327.75 180.55 327.73 180.26 327.72 Z" />
<path fill="#000000" opacity="1.00" d=" M 243.89 321.37 C 244.51 322.04 245.12 322.72 245.73 323.41 C 243.02 327.19 238.90 329.56 235.81 332.98 C 231.95 336.84 228.74 341.34 224.70 345.01 C 224.26 345.08 223.36 345.21 222.92 345.28 C 221.63 347.83 220.17 350.29 218.58 352.66 C 214.75 358.46 213.91 365.56 210.69 371.65 C 207.61 376.96 207.89 383.67 203.95 388.57 C 203.94 386.60 204.69 384.79 205.36 382.99 C 207.18 378.19 206.70 372.77 209.12 368.15 C 211.34 364.08 212.26 359.47 214.40 355.37 C 221.99 342.33 231.69 330.37 243.89 321.37 Z" />
<path fill="#000000" opacity="1.00" d=" M 201.76 324.35 C 201.95 324.67 201.95 324.67 201.76 324.35 Z" />
<path fill="#000000" opacity="1.00" d=" M 196.24 331.58 C 195.58 330.19 197.04 327.77 198.64 328.10 C 199.08 329.41 197.71 331.76 196.24 331.58 Z" />
<path fill="#000000" opacity="1.00" d=" M 337.02 339.97 C 337.65 340.30 338.91 340.97 339.54 341.30 C 338.07 343.14 336.45 345.02 333.94 345.28 C 334.81 343.42 335.86 341.66 337.02 339.97 Z" />
<path fill="#000000" opacity="1.00" d=" M 182.55 347.19 C 184.09 348.03 181.86 351.86 180.31 351.83 C 180.03 350.13 181.21 348.18 182.55 347.19 Z" />
<path fill="#000000" opacity="1.00" d=" M 313.20 363.19 C 315.98 360.46 319.59 358.73 323.38 357.91 C 320.14 361.96 316.33 365.50 312.47 368.94 C 311.11 366.99 311.21 364.67 313.20 363.19 Z" />
<path fill="#000000" opacity="1.00" d=" M 405.48 383.61 C 407.11 387.59 407.46 391.95 408.81 396.03 C 409.34 396.24 410.41 396.65 410.94 396.86 C 410.60 398.37 409.79 399.69 409.11 401.06 C 411.17 409.91 411.98 419.01 410.88 428.05 C 411.19 435.44 408.95 442.49 407.97 449.73 C 407.47 449.03 406.99 448.33 406.52 447.63 C 409.73 433.38 410.50 418.53 408.19 404.08 C 407.43 397.24 405.87 390.49 405.48 383.61 Z" />
<path fill="#000000" opacity="1.00" d=" M 406.04 449.25 C 406.52 449.95 407.00 450.67 407.47 451.39 C 405.35 461.79 400.75 471.44 395.78 480.73 C 391.95 486.92 387.53 492.73 383.63 498.89 C 383.03 498.80 381.83 498.62 381.24 498.54 C 380.47 499.36 379.70 500.19 378.91 501.00 C 380.53 498.05 382.67 495.45 384.82 492.89 C 389.94 486.71 393.92 479.68 397.56 472.55 C 401.20 465.13 405.06 457.58 406.04 449.25 Z" />
<path fill="#000000" opacity="1.00" d=" M 371.65 509.48 C 373.74 506.12 377.01 503.71 380.34 501.69 C 377.99 504.82 374.91 507.34 371.65 509.48 Z" />
<path fill="#000000" opacity="1.00" d=" M 356.20 523.77 C 356.10 522.19 358.47 520.70 359.94 521.01 C 360.00 522.60 357.68 524.01 356.20 523.77 Z" />
<path fill="#000000" opacity="1.00" d=" M 348.34 531.12 C 350.90 528.34 354.18 526.30 357.64 524.83 C 355.15 527.69 351.73 529.54 348.34 531.12 Z" />
<path fill="#000000" opacity="1.00" d=" M 396.47 549.95 C 397.70 549.78 398.18 550.30 397.89 551.51 C 397.50 551.51 396.71 551.52 396.32 551.53 C 396.36 551.13 396.43 550.34 396.47 549.95 Z" />
<path fill="#000000" opacity="1.00" d=" M 330.73 558.36 C 330.77 558.66 330.84 559.25 330.88 559.55 C 328.79 560.27 326.71 561.00 324.58 561.53 C 326.33 559.97 328.58 559.20 330.73 558.36 Z" />
<path fill="#000000" opacity="1.00" d=" M 67.31 650.75 C 67.36 649.22 69.54 647.70 71.02 647.98 C 71.10 649.58 68.82 651.17 67.31 650.75 Z" />
<path fill="#000000" opacity="1.00" d=" M 209.00 673.00 C 212.33 672.99 215.67 672.99 219.00 673.00 C 219.09 701.03 218.81 729.06 219.14 757.08 C 218.62 762.12 224.08 763.69 228.04 764.06 C 227.94 766.72 227.82 769.38 227.72 772.05 C 222.84 771.80 217.30 771.94 213.42 768.48 C 209.45 764.82 209.03 759.06 209.00 754.01 C 209.00 727.00 209.00 700.00 209.00 673.00 Z" />
<path fill="#000000" opacity="1.00" d=" M 179.40 679.59 C 183.18 677.69 188.39 680.66 188.02 685.04 C 188.19 689.47 182.79 692.61 179.04 690.21 C 174.84 688.12 175.00 681.33 179.40 679.59 Z" />
<path fill="#000000" opacity="1.00" d=" M 252.90 707.87 C 262.48 700.30 277.97 701.73 285.77 711.20 C 291.93 718.59 293.73 728.62 293.49 738.00 C 278.64 738.01 263.79 737.98 248.94 738.01 C 249.21 745.39 250.78 753.37 256.33 758.68 C 260.77 763.11 267.67 763.74 273.53 762.41 C 279.36 760.94 283.73 756.50 287.52 752.09 C 289.45 753.94 291.41 755.76 293.41 757.55 C 288.61 763.79 282.36 769.52 274.51 771.39 C 266.09 773.01 256.66 771.65 250.02 765.90 C 242.03 759.12 238.72 748.21 239.03 738.00 C 239.34 726.71 243.77 714.93 252.90 707.87 M 260.01 714.15 C 254.84 717.48 252.12 723.31 250.36 728.99 C 261.30 729.00 272.24 729.02 283.19 728.98 C 281.86 723.90 280.08 718.53 275.85 715.12 C 271.48 711.46 264.76 710.97 260.01 714.15 Z" />
<path fill="#000000" opacity="1.00" d=" M 134.83 704.67 C 140.23 703.36 146.84 703.87 150.65 708.40 C 154.43 712.98 154.90 719.23 155.00 724.92 C 155.01 740.28 155.00 755.64 155.00 771.00 C 151.66 771.00 148.33 771.00 145.00 771.00 C 144.97 755.31 145.06 739.63 144.96 723.95 C 144.68 720.67 144.87 716.31 141.66 714.37 C 138.47 713.57 135.10 714.52 132.03 715.43 C 124.53 718.04 118.24 723.24 112.80 728.89 C 111.66 729.93 112.13 731.62 111.97 732.99 C 112.03 745.66 111.99 758.33 112.00 771.00 C 108.67 770.99 105.33 771.00 102.00 771.00 C 102.04 749.12 101.91 727.25 102.07 705.37 C 105.36 705.42 108.65 705.42 111.95 705.38 C 112.02 709.99 111.99 714.60 112.03 719.22 C 118.59 713.00 125.85 706.87 134.83 704.67 Z" />
<path fill="#000000" opacity="1.00" d=" M 345.78 704.69 C 350.98 703.44 357.26 703.78 361.16 707.88 C 365.18 712.16 365.83 718.39 365.98 723.99 C 366.03 739.66 365.98 755.33 366.00 771.00 C 362.66 771.00 359.33 771.00 356.00 771.00 C 355.94 754.97 356.12 738.94 355.92 722.91 C 355.62 719.83 355.55 715.32 352.02 714.16 C 342.03 713.60 333.28 719.82 326.32 726.35 C 325.12 727.74 322.99 728.83 323.04 730.91 C 322.93 744.27 323.04 757.64 323.00 771.00 C 319.66 771.00 316.33 771.00 313.00 771.00 C 313.04 749.12 312.91 727.25 313.07 705.37 C 316.36 705.42 319.64 705.42 322.93 705.38 C 323.03 709.99 323.00 714.60 323.01 719.22 C 329.58 713.03 336.81 706.89 345.78 704.69 Z" />
<path fill="#000000" opacity="1.00" d=" M 394.76 706.80 C 405.00 701.59 418.09 703.98 426.81 711.15 C 424.82 713.26 422.80 715.34 420.79 717.44 C 415.28 712.82 407.18 710.39 400.34 713.34 C 394.94 715.60 392.77 724.42 398.09 727.91 C 405.93 732.83 415.92 733.09 423.41 738.72 C 432.89 745.56 432.03 762.06 421.97 768.01 C 409.14 775.91 390.54 771.60 382.18 759.11 C 384.38 757.25 386.59 755.40 388.78 753.54 C 391.73 757.90 395.91 761.51 401.05 762.95 C 406.48 764.62 413.08 764.52 417.58 760.66 C 421.79 757.18 422.30 749.67 417.56 746.41 C 409.67 740.79 398.93 740.98 391.43 734.64 C 382.77 727.54 384.70 711.70 394.76 706.80 Z" />
<path fill="#000000" opacity="1.00" d=" M 465.45 704.66 C 474.51 703.05 485.02 704.48 491.65 711.42 C 498.34 718.46 499.95 728.69 499.98 738.04 C 499.94 747.37 498.33 757.56 491.65 764.58 C 485.66 770.95 476.33 772.65 467.96 771.74 C 460.75 771.17 453.71 767.47 449.73 761.35 C 444.82 753.90 443.85 744.65 444.05 735.94 C 444.28 728.13 445.74 719.93 450.53 713.54 C 454.08 708.73 459.60 705.65 465.45 704.66 M 467.49 712.60 C 463.45 713.64 459.87 716.35 457.88 720.02 C 454.37 726.40 453.86 733.91 454.14 741.04 C 454.47 747.13 455.68 753.56 459.57 758.44 C 465.63 765.81 478.36 765.81 484.40 758.42 C 488.76 753.01 489.74 745.74 489.92 739.01 C 489.97 731.82 489.17 724.08 484.83 718.09 C 480.93 712.84 473.66 710.97 467.49 712.60 Z" />
<path fill="#000000" opacity="1.00" d=" M 177.03 705.21 C 180.34 705.23 183.65 705.23 186.97 705.21 C 187.04 727.14 186.98 749.07 187.00 771.00 C 183.67 771.00 180.33 771.00 177.00 771.00 C 177.02 749.07 176.96 727.14 177.03 705.21 Z" />
</g>
</svg>
